<svg width="587" height="423" viewBox="0 0 587 423" fill="none" xmlns="http://www.w3.org/2000/svg">
<mask id="path-1-inside-1_80_92" fill="white">
<path fill-rule="evenodd" clip-rule="evenodd" d="M35.0085 423H586.987C587.528 375.917 569.307 334.444 546.037 302.81C545.789 302.474 545.525 302.113 545.244 301.73C530.186 281.177 466.454 194.187 311.499 194V193C156.246 193 91.9002 280.998 76.7737 301.684C76.4851 302.079 76.2143 302.449 75.9612 302.794C52.7224 334.439 34.5192 375.915 35.0085 423Z"/>
</mask>
<g filter="url(#filter0_i_80_92)">
<path fill-rule="evenodd" clip-rule="evenodd" d="M35.0085 423H586.987C587.528 375.917 569.307 334.444 546.037 302.81C545.789 302.474 545.525 302.113 545.244 301.73C530.186 281.177 466.454 194.187 311.499 194V193C156.246 193 91.9002 280.998 76.7737 301.684C76.4851 302.079 76.2143 302.449 75.9612 302.794C52.7224 334.439 34.5192 375.915 35.0085 423Z" fill="#FEFEFE"/>
</g>
<path d="M35.0087 423L30.0089 423.052L30.0604 428H35.0087V423ZM586.987 423V428H591.93L591.987 423.058L586.987 423ZM546.037 302.81L550.064 299.848L550.064 299.847L546.037 302.81ZM545.244 301.73L541.21 304.685L541.21 304.685L545.244 301.73ZM311.499 194H306.499V198.994L311.493 199L311.499 194ZM311.499 193H316.499V188L311.499 188L311.499 193ZM76.7738 301.684L80.8099 304.635L80.8099 304.635L76.7738 301.684ZM75.9614 302.794L71.9313 299.834L71.9313 299.834L75.9614 302.794ZM35.0087 428H586.987V418H35.0087V428ZM542.009 305.773C564.811 336.769 582.513 377.207 581.988 422.943L591.987 423.058C592.544 374.628 573.804 332.118 550.064 299.848L542.009 305.773ZM541.21 304.685C541.491 305.067 541.758 305.432 542.009 305.773L550.064 299.847C549.82 299.516 549.559 299.159 549.277 298.774L541.21 304.685ZM311.493 199C464.127 199.184 526.557 284.684 541.21 304.685L549.277 298.775C533.815 277.67 468.781 189.19 311.505 189L311.493 199ZM306.499 193V194H316.499V193H306.499ZM80.8099 304.635C95.5427 284.487 158.585 198 311.499 198L311.499 188C153.908 188 88.258 277.508 72.7378 298.733L80.8099 304.635ZM79.9914 305.753C80.2481 305.404 80.522 305.029 80.8099 304.635L72.7378 298.733C72.4484 299.129 72.1808 299.495 71.9313 299.834L79.9914 305.753ZM40.0084 422.948C39.533 377.205 57.2204 336.761 79.9914 305.753L71.9313 299.834C48.2245 332.117 29.5056 374.625 30.0089 423.052L40.0084 422.948Z" fill="#505050" mask="url(#path-1-inside-1_80_92)"/>
<mask id="path-3-inside-2_80_92" fill="white">
<path fill-rule="evenodd" clip-rule="evenodd" d="M497.379 423C491.312 384.463 480.24 347.051 468.218 319C448.718 273.5 400.718 174 328.218 168C214.473 168 162.5 273.525 149.738 299.437C149.149 300.634 148.643 301.661 148.218 302.5C132.451 333.668 112.382 373.44 102.8 423H497.379Z"/>
</mask>
<g filter="url(#filter1_i_80_92)">
<path fill-rule="evenodd" clip-rule="evenodd" d="M497.379 423C491.312 384.463 480.24 347.051 468.218 319C448.718 273.5 400.718 174 328.218 168C214.473 168 162.5 273.525 149.738 299.437C149.149 300.634 148.643 301.661 148.218 302.5C132.451 333.668 112.382 373.44 102.8 423H497.379Z" fill="#FEFEFE"/>
</g>
<path d="M497.379 423V428H503.228L502.318 422.223L497.379 423ZM328.218 168L328.631 163.017L328.425 163H328.218V168ZM149.738 299.437L145.253 297.228L145.253 297.228L149.738 299.437ZM148.218 302.5L143.757 300.243L143.757 300.243L148.218 302.5ZM102.8 423L97.8907 422.051L96.7405 428H102.8V423ZM463.623 320.97C475.472 348.618 486.434 385.628 492.44 423.778L502.318 422.223C496.19 383.298 485.008 345.483 472.814 317.031L463.623 320.97ZM327.806 172.983C361.862 175.801 390.84 200.704 414.094 231.689C437.227 262.513 453.915 298.319 463.623 320.97L472.814 317.031C463.022 294.181 445.959 257.488 422.092 225.686C398.346 194.046 367.075 166.199 328.631 163.017L327.806 172.983ZM154.224 301.646C160.573 288.755 176.472 256.507 204.694 227.488C232.854 198.532 273.068 173 328.218 173V163C269.623 163 226.978 190.231 197.525 220.516C168.134 250.737 151.665 284.207 145.253 297.228L154.224 301.646ZM152.68 304.757C153.119 303.889 153.638 302.835 154.224 301.646L145.253 297.228C144.659 298.433 144.166 299.433 143.757 300.243L152.68 304.757ZM107.709 423.949C117.144 375.148 136.908 335.934 152.68 304.757L143.757 300.243C127.994 331.401 107.619 371.732 97.8907 422.051L107.709 423.949ZM102.8 428H497.379V418H102.8V428Z" fill="#505050" mask="url(#path-3-inside-2_80_92)"/>
<path fill-rule="evenodd" clip-rule="evenodd" d="M393.301 341.38C375.444 330.666 355.801 311.651 355.801 300.309C355.801 288.968 364.595 279.773 375.444 279.773C383.335 279.773 390.139 284.638 393.262 291.655C396.35 284.647 403.201 279.773 411.158 279.773C422.006 279.773 430.801 288.834 430.801 300.012C430.801 311.189 411.158 330.821 393.301 341.38Z" fill="#FF9E59"/>
<path d="M367.801 312.773C369.614 312.773 371.722 312.773 373.801 312.773C375.178 312.773 375.962 310.16 377.801 310.273C379.477 310.377 380.325 312.773 381.301 312.773C382.828 312.773 383.801 312.773 383.801 312.773L385.801 315.273L388.301 296.773L392.301 319.273L394.301 312.773H402.301C402.301 312.773 404.79 310.273 406.801 310.273C408.811 310.273 411.301 312.773 411.301 312.773H419.301" stroke="#FEFEFE" stroke-width="2" stroke-linecap="round"/>
<rect x="40" y="418" width="542" height="5" fill="url(#paint0_radial_80_92)"/>
<g filter="url(#filter2_i_80_92)">
<ellipse cx="311.095" cy="129.979" rx="161" ry="120" transform="rotate(-3.64 311.095 129.979)" fill="#FEFEFE"/>
</g>
<path d="M469.276 119.917C471.318 152.019 455.727 182.388 428.479 205.528C401.23 228.668 362.44 244.451 318.555 247.242C274.67 250.034 234.193 239.294 204.232 219.793C174.271 200.293 154.957 172.144 152.915 140.042C150.873 107.94 166.464 77.5709 193.712 54.4309C220.961 31.2908 259.75 15.5082 303.636 12.7164C347.521 9.9246 387.998 20.6646 417.959 40.1653C447.92 59.6659 467.233 87.8145 469.276 119.917Z" stroke="#505050" stroke-width="5"/>
<path fill-rule="evenodd" clip-rule="evenodd" d="M262.387 126.878C261.037 137.348 252.428 145.736 241.499 146.431C229.098 147.22 218.405 137.806 217.616 125.405C216.827 113.003 226.241 102.311 238.642 101.522C251.043 100.733 261.736 110.147 262.525 122.548C262.575 123.334 262.584 124.114 262.554 124.884C280.527 126.98 291.309 127.23 309.843 126.051C328.716 124.85 339.427 123.199 357.572 118.66C357.46 117.956 357.38 117.242 357.334 116.517C356.545 104.115 365.958 93.4224 378.36 92.6335C390.761 91.8446 401.454 101.258 402.243 113.66C403.032 126.061 393.618 136.754 381.217 137.543C370.225 138.242 360.576 130.927 357.975 120.62C339.762 125.174 328.935 126.84 309.97 128.047C291.338 129.232 280.442 128.981 262.387 126.878Z" fill="#121010"/>
<path d="M219.585 156.342C220.465 162.298 213.646 165.237 205.654 165.746C197.662 166.254 191.119 165.668 190.643 158.183C190.135 150.2 196.582 149.288 204.574 148.78C212.566 148.272 219.287 151.657 219.585 156.342Z" fill="#FF9E59"/>
<path d="M404.237 144.596C404.119 150.615 411.249 152.667 419.234 152.159C427.219 151.651 433.629 150.241 433.153 142.756C432.645 134.772 426.14 134.685 418.155 135.193C410.17 135.701 403.939 139.911 404.237 144.596Z" fill="#FF9E59"/>
<path d="M104.744 165.947C109.785 171.324 111.556 183.549 111.556 183.549C111.556 183.549 114.108 171.463 119.485 166.421C124.862 161.379 137.087 159.609 137.087 159.609C137.087 159.609 125.001 157.057 119.959 151.68C114.917 146.303 113.147 134.077 113.147 134.077C113.147 134.077 110.595 146.164 105.218 151.206C99.8408 156.247 87.6152 158.018 87.6152 158.018C87.6152 158.018 99.7017 160.57 104.744 165.947Z" fill="#FF9E59"/>
<path d="M61.1911 145.966C65.6769 148.833 69.091 157.075 69.091 157.075C69.091 157.075 68.7272 148.161 71.594 143.675C74.4607 139.19 82.7034 135.775 82.7034 135.775C82.7034 135.775 73.7891 136.139 69.3033 133.272C64.8175 130.406 61.4034 122.163 61.4034 122.163C61.4034 122.163 61.7672 131.077 58.9005 135.563C56.0337 140.049 47.791 143.463 47.791 143.463C47.791 143.463 56.7054 143.099 61.1911 145.966Z" fill="#FF9E59"/>
<path d="M46.078 212.624C56.7952 215.896 68.3838 230.673 68.3838 230.673C68.3838 230.673 62.5986 212.807 65.8703 202.09C69.1419 191.373 83.9189 179.784 83.9189 179.784C83.9189 179.784 66.0531 185.569 55.336 182.298C44.6188 179.026 33.0302 164.249 33.0302 164.249C33.0302 164.249 38.8154 182.115 35.5437 192.832C32.272 203.549 17.4951 215.138 17.4951 215.138C17.4951 215.138 35.3609 209.353 46.078 212.624Z" fill="#FF9E59"/>
<defs>
<filter id="filter0_i_80_92" x="34.999" y="193" width="569" height="230" filterUnits="userSpaceOnUse" color-interpolation-filters="sRGB">
<feFlood flood-opacity="0" result="BackgroundImageFix"/>
<feBlend mode="normal" in="SourceGraphic" in2="BackgroundImageFix" result="shape"/>
<feColorMatrix in="SourceAlpha" type="matrix" values="0 0 0 0 0 0 0 0 0 0 0 0 0 0 0 0 0 0 127 0" result="hardAlpha"/>
<feOffset dx="23"/>
<feGaussianBlur stdDeviation="8.5"/>
<feComposite in2="hardAlpha" operator="arithmetic" k2="-1" k3="1"/>
<feColorMatrix type="matrix" values="0 0 0 0 0.313726 0 0 0 0 0.313726 0 0 0 0 0.313726 0 0 0 0.25 0"/>
<feBlend mode="normal" in2="shape" result="effect1_innerShadow_80_92"/>
</filter>
<filter id="filter1_i_80_92" x="102.8" y="168" width="411.579" height="255" filterUnits="userSpaceOnUse" color-interpolation-filters="sRGB">
<feFlood flood-opacity="0" result="BackgroundImageFix"/>
<feBlend mode="normal" in="SourceGraphic" in2="BackgroundImageFix" result="shape"/>
<feColorMatrix in="SourceAlpha" type="matrix" values="0 0 0 0 0 0 0 0 0 0 0 0 0 0 0 0 0 0 127 0" result="hardAlpha"/>
<feOffset dx="23"/>
<feGaussianBlur stdDeviation="8.5"/>
<feComposite in2="hardAlpha" operator="arithmetic" k2="-1" k3="1"/>
<feColorMatrix type="matrix" values="0 0 0 0 0.313726 0 0 0 0 0.313726 0 0 0 0 0.313726 0 0 0 0.25 0"/>
<feBlend mode="normal" in2="shape" result="effect1_innerShadow_80_92"/>
</filter>
<filter id="filter2_i_80_92" x="150.236" y="9.77905" width="338.718" height="240.401" filterUnits="userSpaceOnUse" color-interpolation-filters="sRGB">
<feFlood flood-opacity="0" result="BackgroundImageFix"/>
<feBlend mode="normal" in="SourceGraphic" in2="BackgroundImageFix" result="shape"/>
<feColorMatrix in="SourceAlpha" type="matrix" values="0 0 0 0 0 0 0 0 0 0 0 0 0 0 0 0 0 0 127 0" result="hardAlpha"/>
<feOffset dx="23"/>
<feGaussianBlur stdDeviation="8.5"/>
<feComposite in2="hardAlpha" operator="arithmetic" k2="-1" k3="1"/>
<feColorMatrix type="matrix" values="0 0 0 0 0.313726 0 0 0 0 0.313726 0 0 0 0 0.313726 0 0 0 0.25 0"/>
<feBlend mode="normal" in2="shape" result="effect1_innerShadow_80_92"/>
</filter>
<radialGradient id="paint0_radial_80_92" cx="0" cy="0" r="1" gradientUnits="userSpaceOnUse" gradientTransform="translate(40 423) scale(104 11273.6)">
<stop stop-color="#D3D3D3"/>
<stop offset="0.475816" stop-color="#FEFEFE"/>
<stop offset="1" stop-color="#FEFEFE"/>
</radialGradient>
</defs>
</svg>
