<svg width="552" height="427" viewBox="0 0 552 427" fill="none" xmlns="http://www.w3.org/2000/svg">
<mask id="path-1-inside-1_80_61" fill="white">
<path fill-rule="evenodd" clip-rule="evenodd" d="M0.0883095 427H551.905C553.493 378.366 534.926 335.523 511.038 303.051C510.79 302.715 510.526 302.354 510.245 301.97C495.187 281.418 431.455 194.428 276.5 194.241V193.241C121.248 193.241 56.9013 281.238 41.7748 301.925L41.7744 301.925C41.4859 302.32 41.2153 302.69 40.9623 303.034C17.1069 335.519 -1.44202 378.363 0.0883095 427Z"/>
</mask>
<g filter="url(#filter0_i_80_61)">
<path fill-rule="evenodd" clip-rule="evenodd" d="M0.0883095 427H551.905C553.493 378.366 534.926 335.523 511.038 303.051C510.79 302.715 510.526 302.354 510.245 301.97C495.187 281.418 431.455 194.428 276.5 194.241V193.241C121.248 193.241 56.9013 281.238 41.7748 301.925L41.7744 301.925C41.4859 302.32 41.2153 302.69 40.9623 303.034C17.1069 335.519 -1.44202 378.363 0.0883095 427Z" fill="#FEFEFE"/>
</g>
<path d="M0.0883098 427L-4.90922 427.157L-4.75684 432H0.0883098V427ZM551.905 427V432H556.745L556.903 427.163L551.905 427ZM511.038 303.051L515.065 300.088L515.065 300.088L511.038 303.051ZM510.245 301.97L506.211 304.925L506.211 304.925L510.245 301.97ZM276.5 194.241H271.5V199.235L276.494 199.241L276.5 194.241ZM276.5 193.241H281.5V188.241L276.5 188.241L276.5 193.241ZM41.7748 301.925L37.7387 298.973L37.7254 298.992L37.7121 299.01L41.7748 301.925ZM41.7744 301.925L45.8105 304.877L45.8239 304.858L45.8371 304.84L41.7744 301.925ZM40.9623 303.034L36.9323 300.075L36.9323 300.075L40.9623 303.034ZM0.0883098 432H551.905V422H0.0883098V432ZM507.01 306.014C530.417 337.833 548.45 379.599 546.908 426.837L556.903 427.163C558.536 377.133 539.434 333.214 515.065 300.088L507.01 306.014ZM506.211 304.925C506.492 305.308 506.759 305.673 507.01 306.014L515.065 300.088C514.821 299.756 514.56 299.4 514.278 299.015L506.211 304.925ZM276.494 199.241C429.128 199.425 491.558 284.925 506.211 304.925L514.278 299.015C498.816 277.911 433.782 189.431 276.506 189.241L276.494 199.241ZM271.5 193.241V194.241H281.5V193.241H271.5ZM45.8109 304.876C60.5437 284.728 123.586 198.241 276.5 198.241L276.5 188.241C118.909 188.241 53.259 277.749 37.7387 298.973L45.8109 304.876ZM45.8371 304.84L45.8375 304.839L37.7121 299.01L37.7117 299.011L45.8371 304.84ZM44.9924 305.994C45.2489 305.645 45.5227 305.27 45.8105 304.877L37.7384 298.974C37.4491 299.37 37.1817 299.735 36.9323 300.075L44.9924 305.994ZM5.08584 426.843C3.59928 379.597 21.6166 337.825 44.9924 305.994L36.9323 300.075C12.5973 333.213 -6.48332 377.129 -4.90922 427.157L5.08584 426.843Z" fill="#505050" mask="url(#path-1-inside-1_80_61)"/>
<mask id="path-3-inside-2_80_61" fill="white">
<path fill-rule="evenodd" clip-rule="evenodd" d="M458.279 427C452.239 388.195 441.1 350.476 429 322.241C409.5 276.741 361.5 177.241 289 171.241C175.254 171.241 123.282 276.766 110.52 302.678C109.93 303.875 109.424 304.902 109 305.741C93.1524 337.067 72.9584 377.086 63.4355 427H458.279Z"/>
</mask>
<g filter="url(#filter1_i_80_61)">
<path fill-rule="evenodd" clip-rule="evenodd" d="M458.279 427C452.239 388.195 441.1 350.476 429 322.241C409.5 276.741 361.5 177.241 289 171.241C175.254 171.241 123.282 276.766 110.52 302.678C109.93 303.875 109.424 304.902 109 305.741C93.1524 337.067 72.9584 377.086 63.4355 427H458.279Z" fill="#FEFEFE"/>
</g>
<path d="M429 322.241L424.404 324.21L424.404 324.21L429 322.241ZM458.279 427V432H464.118L463.22 426.231L458.279 427ZM289 171.241L289.412 166.258L289.206 166.241H289V171.241ZM110.52 302.678L106.034 300.468L106.034 300.468L110.52 302.678ZM109 305.741L104.538 303.484L104.538 303.484L109 305.741ZM63.4355 427L58.5241 426.063L57.3914 432H63.4355V427ZM424.404 324.21C436.332 352.041 447.359 389.356 453.339 427.769L463.22 426.231C457.119 387.035 445.869 348.91 433.596 320.271L424.404 324.21ZM288.587 176.224C322.643 179.042 351.622 203.945 374.876 234.929C398.009 265.753 414.697 301.559 424.404 324.21L433.596 320.271C423.803 297.422 406.741 260.728 382.874 228.927C359.128 197.286 327.856 169.439 289.412 166.258L288.587 176.224ZM115.005 304.887C121.354 291.995 137.253 259.747 165.475 230.728C193.636 201.772 233.849 176.241 289 176.241V166.241C230.405 166.241 187.759 193.472 158.307 223.756C128.915 253.978 112.447 287.448 106.034 300.468L115.005 304.887ZM113.461 307.998C113.901 307.13 114.42 306.075 115.005 304.887L106.034 300.468C105.441 301.674 104.948 302.674 104.538 303.484L113.461 307.998ZM68.347 427.937C77.7237 378.789 97.6093 339.333 113.461 307.998L104.538 303.484C88.6955 334.801 68.1932 375.383 58.5241 426.063L68.347 427.937ZM63.4355 432H458.279V422H63.4355V432Z" fill="#505050" mask="url(#path-3-inside-2_80_61)"/>
<path fill-rule="evenodd" clip-rule="evenodd" d="M358.301 341.621C340.444 330.907 320.801 311.891 320.801 300.55C320.801 289.208 329.595 280.014 340.444 280.014C348.335 280.014 355.139 284.879 358.262 291.896C361.35 284.888 368.201 280.014 376.158 280.014C387.006 280.014 395.801 289.075 395.801 300.252C395.801 311.429 376.158 331.062 358.301 341.621Z" fill="#20AFFF"/>
<path d="M332.801 313.014C334.614 313.014 336.722 313.014 338.801 313.014C340.178 313.014 340.962 310.401 342.801 310.514C344.477 310.618 345.325 313.014 346.301 313.014C347.828 313.014 348.801 313.014 348.801 313.014L350.801 315.514L353.301 297.014L357.301 319.514L359.301 313.014H367.301C367.301 313.014 369.79 310.514 371.801 310.514C373.811 310.514 376.301 313.014 376.301 313.014H384.301" stroke="#FEFEFE" stroke-width="2" stroke-linecap="round"/>
<g filter="url(#filter2_i_80_61)">
<ellipse cx="275.952" cy="129.967" rx="161" ry="120" transform="rotate(-3.63521 275.952 129.967)" fill="#FEFEFE"/>
</g>
<path d="M434.133 119.917C436.172 152.019 420.579 182.387 393.329 205.525C366.078 228.663 327.287 244.442 283.401 247.23C239.516 250.018 199.04 239.275 169.08 219.772C139.121 200.269 119.81 172.118 117.77 140.016C115.731 107.914 131.324 77.546 158.574 54.4083C185.825 31.2705 224.616 15.4911 268.502 12.703C312.387 9.91486 352.863 20.6583 382.823 40.1615C412.782 59.6645 432.093 87.8147 434.133 119.917Z" stroke="#505050" stroke-width="5"/>
<path fill-rule="evenodd" clip-rule="evenodd" d="M227.278 126.579C226.047 137.18 217.381 145.712 206.354 146.412C193.952 147.2 183.26 137.786 182.472 125.384C181.685 112.983 191.099 102.291 203.501 101.503C215.902 100.715 226.594 110.13 227.382 122.531C227.425 123.216 227.438 123.896 227.42 124.57C228.158 124.535 229.095 124.49 230.2 124.438C233.122 124.298 237.218 124.098 241.913 123.861C251.304 123.386 263.088 122.76 272.67 122.151C282.252 121.542 294.909 120.616 305.173 119.842C310.304 119.455 314.836 119.106 318.085 118.854C319.71 118.728 321.014 118.626 321.912 118.556L322.408 118.517C322.307 117.857 322.234 117.187 322.191 116.508C321.403 104.106 330.818 93.4143 343.219 92.6264C355.62 91.8386 366.312 101.253 367.1 113.655C367.888 126.056 358.474 136.748 346.072 137.536C335.038 138.237 325.358 130.862 322.802 120.492L322.068 120.55C321.17 120.62 319.865 120.722 318.24 120.848C314.99 121.1 310.456 121.449 305.323 121.836C295.058 122.61 282.392 123.537 272.797 124.147C263.201 124.756 251.407 125.384 242.014 125.858C237.317 126.096 233.219 126.295 230.296 126.435C229.069 126.494 228.049 126.542 227.278 126.579Z" fill="#121010"/>
<path d="M190.099 176.199C190.044 181.169 185.97 185.154 180.999 185.098C176.029 185.043 172.045 180.969 172.1 175.999C172.155 171.029 177.177 169.055 181.266 161.1C185.177 169.144 190.154 171.229 190.099 176.199Z" fill="#20AFFF"/>
<defs>
<filter id="filter0_i_80_61" x="0" y="193.241" width="569" height="233.759" filterUnits="userSpaceOnUse" color-interpolation-filters="sRGB">
<feFlood flood-opacity="0" result="BackgroundImageFix"/>
<feBlend mode="normal" in="SourceGraphic" in2="BackgroundImageFix" result="shape"/>
<feColorMatrix in="SourceAlpha" type="matrix" values="0 0 0 0 0 0 0 0 0 0 0 0 0 0 0 0 0 0 127 0" result="hardAlpha"/>
<feOffset dx="23"/>
<feGaussianBlur stdDeviation="8.5"/>
<feComposite in2="hardAlpha" operator="arithmetic" k2="-1" k3="1"/>
<feColorMatrix type="matrix" values="0 0 0 0 0.313726 0 0 0 0 0.313726 0 0 0 0 0.313726 0 0 0 0.25 0"/>
<feBlend mode="normal" in2="shape" result="effect1_innerShadow_80_61"/>
</filter>
<filter id="filter1_i_80_61" x="63.4355" y="171.241" width="411.844" height="255.759" filterUnits="userSpaceOnUse" color-interpolation-filters="sRGB">
<feFlood flood-opacity="0" result="BackgroundImageFix"/>
<feBlend mode="normal" in="SourceGraphic" in2="BackgroundImageFix" result="shape"/>
<feColorMatrix in="SourceAlpha" type="matrix" values="0 0 0 0 0 0 0 0 0 0 0 0 0 0 0 0 0 0 127 0" result="hardAlpha"/>
<feOffset dx="23"/>
<feGaussianBlur stdDeviation="8.5"/>
<feComposite in2="hardAlpha" operator="arithmetic" k2="-1" k3="1"/>
<feColorMatrix type="matrix" values="0 0 0 0 0.313726 0 0 0 0 0.313726 0 0 0 0 0.313726 0 0 0 0.25 0"/>
<feBlend mode="normal" in2="shape" result="effect1_innerShadow_80_61"/>
</filter>
<filter id="filter2_i_80_61" x="115.092" y="9.76685" width="338.719" height="240.399" filterUnits="userSpaceOnUse" color-interpolation-filters="sRGB">
<feFlood flood-opacity="0" result="BackgroundImageFix"/>
<feBlend mode="normal" in="SourceGraphic" in2="BackgroundImageFix" result="shape"/>
<feColorMatrix in="SourceAlpha" type="matrix" values="0 0 0 0 0 0 0 0 0 0 0 0 0 0 0 0 0 0 127 0" result="hardAlpha"/>
<feOffset dx="23"/>
<feGaussianBlur stdDeviation="8.5"/>
<feComposite in2="hardAlpha" operator="arithmetic" k2="-1" k3="1"/>
<feColorMatrix type="matrix" values="0 0 0 0 0.313726 0 0 0 0 0.313726 0 0 0 0 0.313726 0 0 0 0.25 0"/>
<feBlend mode="normal" in2="shape" result="effect1_innerShadow_80_61"/>
</filter>
</defs>
</svg>
