<svg width="290" height="241" viewBox="0 0 290 241" fill="none" xmlns="http://www.w3.org/2000/svg">
<g filter="url(#filter0_i_100_176)">
<ellipse cx="145.015" cy="120.725" rx="144.986" ry="120" fill="#FEFEFE"/>
</g>
<path d="M287.501 120.725C287.501 185.197 224.171 238.225 145.015 238.225C65.859 238.225 2.5293 185.197 2.5293 120.725C2.5293 56.2537 65.859 3.22546 145.015 3.22546C224.171 3.22546 287.501 56.2537 287.501 120.725Z" stroke="#505050" stroke-width="5"/>
<path fill-rule="evenodd" clip-rule="evenodd" d="M101.417 114.542C99.6042 124.903 91.3886 132.725 81.5276 132.725C70.3372 132.725 61.2656 122.652 61.2656 110.225C61.2656 97.7991 70.3372 87.7255 81.5276 87.7255C92.718 87.7255 101.79 97.7991 101.79 110.225C101.79 111.012 101.753 111.789 101.682 112.555C117.725 115.792 127.39 116.725 144.115 116.725C161.144 116.725 170.854 115.757 187.432 112.376C187.371 111.668 187.34 110.951 187.34 110.225C187.34 97.7991 196.412 87.7255 207.602 87.7255C218.793 87.7255 227.864 97.7991 227.864 110.225C227.864 122.652 218.793 132.725 207.602 132.725C197.685 132.725 189.433 124.814 187.682 114.366C171.064 117.749 161.228 118.725 144.115 118.725C127.302 118.725 117.513 117.784 101.417 114.542Z" fill="#121010"/>
<path d="M61.2649 141.226C61.7151 147.226 55.4187 149.726 48.2071 149.726C40.9956 149.726 35.1494 148.726 35.1494 141.226C35.1494 133.226 40.9956 132.726 48.2071 132.726C55.4187 132.726 61.2649 136.531 61.2649 141.226Z" fill="#FF5959"/>
<path d="M227.886 141.226C227.436 147.226 233.727 149.726 240.932 149.726C248.137 149.726 253.979 148.726 253.979 141.226C253.979 133.226 248.137 132.726 240.932 132.726C233.727 132.726 227.886 136.531 227.886 141.226Z" fill="#FF5959"/>
<defs>
<filter id="filter0_i_100_176" x="0.0292969" y="0.725464" width="306.972" height="240" filterUnits="userSpaceOnUse" color-interpolation-filters="sRGB">
<feFlood flood-opacity="0" result="BackgroundImageFix"/>
<feBlend mode="normal" in="SourceGraphic" in2="BackgroundImageFix" result="shape"/>
<feColorMatrix in="SourceAlpha" type="matrix" values="0 0 0 0 0 0 0 0 0 0 0 0 0 0 0 0 0 0 127 0" result="hardAlpha"/>
<feOffset dx="23"/>
<feGaussianBlur stdDeviation="8.5"/>
<feComposite in2="hardAlpha" operator="arithmetic" k2="-1" k3="1"/>
<feColorMatrix type="matrix" values="0 0 0 0 0.313726 0 0 0 0 0.313726 0 0 0 0 0.313726 0 0 0 0.25 0"/>
<feBlend mode="normal" in2="shape" result="effect1_innerShadow_100_176"/>
</filter>
</defs>
</svg>
