<svg width="590" height="427" viewBox="0 0 590 427" fill="none" xmlns="http://www.w3.org/2000/svg">
<mask id="path-1-inside-1_80_43" fill="white">
<path fill-rule="evenodd" clip-rule="evenodd" d="M37.2087 427H589.187C589.728 379.917 571.507 338.443 548.237 306.81C547.989 306.474 547.725 306.113 547.444 305.729C532.386 285.177 468.654 198.187 313.699 198V197C158.447 197 94.1004 284.998 78.9739 305.684C78.6853 306.079 78.4145 306.449 78.1614 306.794C54.9226 338.439 36.7194 379.915 37.2087 427Z"/>
</mask>
<g filter="url(#filter0_i_80_43)">
<path fill-rule="evenodd" clip-rule="evenodd" d="M37.2087 427H589.187C589.728 379.917 571.507 338.443 548.237 306.81C547.989 306.474 547.725 306.113 547.444 305.729C532.386 285.177 468.654 198.187 313.699 198V197C158.447 197 94.1004 284.998 78.9739 305.684C78.6853 306.079 78.4145 306.449 78.1614 306.794C54.9226 338.439 36.7194 379.915 37.2087 427Z" fill="#FEFEFE"/>
</g>
<path d="M37.2089 427L32.2091 427.052L32.2606 432H37.2089V427ZM589.187 427V432H594.13L594.187 427.057L589.187 427ZM548.237 306.81L552.264 303.847L552.264 303.847L548.237 306.81ZM547.444 305.729L543.411 308.684L543.411 308.684L547.444 305.729ZM313.699 198H308.699V202.994L313.693 203L313.699 198ZM313.699 197H318.699V192L313.699 192L313.699 197ZM78.974 305.684L83.0101 308.635L83.0101 308.635L78.974 305.684ZM78.1616 306.794L74.1315 303.834L74.1315 303.834L78.1616 306.794ZM37.2089 432H589.187V422H37.2089V432ZM544.209 309.773C567.011 340.769 584.713 381.207 584.188 426.943L594.187 427.057C594.744 378.628 576.004 336.118 552.264 303.847L544.209 309.773ZM543.411 308.684C543.691 309.067 543.958 309.432 544.209 309.773L552.264 303.847C552.02 303.516 551.759 303.159 551.477 302.774L543.411 308.684ZM313.693 203C466.327 203.184 528.757 288.684 543.411 308.684L551.477 302.774C536.015 281.67 470.981 193.19 313.705 193L313.693 203ZM308.699 197V198H318.699V197H308.699ZM83.0101 308.635C97.7429 288.487 160.785 202 313.699 202L313.699 192C156.108 192 90.4582 281.508 74.938 302.733L83.0101 308.635ZM82.1916 309.753C82.4483 309.404 82.7222 309.029 83.0101 308.635L74.938 302.733C74.6486 303.128 74.381 303.494 74.1315 303.834L82.1916 309.753ZM42.2086 426.948C41.7332 381.205 59.4206 340.761 82.1916 309.753L74.1315 303.834C50.4247 336.116 31.7058 378.625 32.2091 427.052L42.2086 426.948Z" fill="#505050" mask="url(#path-1-inside-1_80_43)"/>
<mask id="path-3-inside-2_80_43" fill="white">
<path fill-rule="evenodd" clip-rule="evenodd" d="M499.579 427C493.512 388.463 482.44 351.051 470.418 323C450.918 277.5 402.918 178 330.418 172C216.673 172 164.7 277.525 151.938 303.437C151.349 304.634 150.843 305.661 150.418 306.5C134.651 337.667 114.582 377.44 105 427H499.579Z"/>
</mask>
<g filter="url(#filter1_i_80_43)">
<path fill-rule="evenodd" clip-rule="evenodd" d="M499.579 427C493.512 388.463 482.44 351.051 470.418 323C450.918 277.5 402.918 178 330.418 172C216.673 172 164.7 277.525 151.938 303.437C151.349 304.634 150.843 305.661 150.418 306.5C134.651 337.667 114.582 377.44 105 427H499.579Z" fill="#FEFEFE"/>
</g>
<path d="M499.579 427V432H505.428L504.518 426.222L499.579 427ZM330.418 172L330.831 167.017L330.625 167H330.418V172ZM151.938 303.437L147.453 301.228L147.453 301.228L151.938 303.437ZM150.418 306.5L145.957 304.243L145.957 304.243L150.418 306.5ZM105 427L100.091 426.051L98.9407 432H105V427ZM465.823 324.97C477.672 352.618 488.634 389.628 494.64 427.778L504.518 426.222C498.39 387.298 487.208 349.483 475.014 321.03L465.823 324.97ZM330.006 176.983C364.062 179.801 393.041 204.704 416.294 235.689C439.428 266.513 456.115 302.319 465.823 324.97L475.014 321.03C465.222 298.181 448.159 261.487 424.292 229.686C400.546 198.046 369.275 170.199 330.831 167.017L330.006 176.983ZM156.424 305.646C162.773 292.755 178.672 260.507 206.894 231.487C235.055 202.531 275.268 177 330.418 177V167C271.824 167 229.178 194.231 199.725 224.516C170.334 254.737 153.866 288.207 147.453 301.228L156.424 305.646ZM154.88 308.757C155.319 307.889 155.838 306.835 156.424 305.646L147.453 301.228C146.859 302.433 146.367 303.433 145.957 304.243L154.88 308.757ZM109.909 427.949C119.344 379.148 139.108 339.934 154.88 308.757L145.957 304.243C130.195 335.401 109.82 375.732 100.091 426.051L109.909 427.949ZM105 432H499.579V422H105V432Z" fill="#505050" mask="url(#path-3-inside-2_80_43)"/>
<path fill-rule="evenodd" clip-rule="evenodd" d="M120.792 173.924C120.792 173.924 112.812 138.639 99.3096 138.042C88.6931 137.572 78.3376 140.885 76.9061 157.221C67.8233 147.859 63.1429 145.818 55.5477 149.524C47.6863 153.359 46.5267 159.191 45.8718 162.485C45.7533 163.081 45.6513 163.594 45.5292 163.997C44.4491 167.56 47.2848 188.477 47.2848 188.477C47.2848 188.477 37.6345 172.343 28.1226 173.924C18.6106 175.505 13.6501 182.443 13.1491 194.113C12.3691 212.281 14.6866 221.632 19.2412 240.01L19.5288 241.17C22.9795 255.101 25.7656 260.957 27.7578 265.145L27.7578 265.145C28.379 266.45 28.923 267.594 29.3859 268.769C32.6478 277.052 31.8815 286.921 25.7154 366.341C25.0629 374.745 24.3499 383.928 23.5749 393.971C22.6896 405.441 22.0301 415.385 21.6828 424H204.625C200.515 410.591 195.281 395.498 189.856 379.856C173.973 334.055 156.457 283.547 160.733 256.833C160.972 255.344 161.415 253.478 161.927 251.319C164.581 240.141 169.093 221.141 156.608 206.344C154.714 204.1 154.519 198.659 154.293 192.345C153.836 179.559 153.25 163.192 138.167 162.536C128.143 162.099 123.508 167.028 120.792 173.924Z" fill="#FEFEFE"/>
<path d="M99.3096 138.042L99.1992 140.539L99.1992 140.539L99.3096 138.042ZM120.792 173.924L118.354 174.475C118.596 175.545 119.507 176.333 120.601 176.416C121.695 176.5 122.716 175.861 123.118 174.84L120.792 173.924ZM76.9061 157.221L75.1118 158.962C75.793 159.664 76.8213 159.904 77.7432 159.577C78.6651 159.249 79.3111 158.414 79.3965 157.439L76.9061 157.221ZM55.5477 149.524L54.4516 147.277L54.4516 147.277L55.5477 149.524ZM45.8718 162.485L43.4198 161.998L43.4198 161.998L45.8718 162.485ZM45.5292 163.997L43.1367 163.272L43.1367 163.272L45.5292 163.997ZM47.2848 188.477L45.1393 189.76C45.7488 190.779 46.9907 191.229 48.1112 190.836C49.2317 190.444 49.9217 189.317 49.7622 188.141L47.2848 188.477ZM28.1226 173.924L27.7127 171.457L27.7127 171.457L28.1226 173.924ZM13.1491 194.113L10.6514 194.006L10.6514 194.006L13.1491 194.113ZM19.2412 240.01L21.6678 239.408L21.6678 239.408L19.2412 240.01ZM19.5288 241.17L21.9554 240.569L21.9554 240.569L19.5288 241.17ZM27.7578 265.145L30.0305 264.103C30.0255 264.092 30.0205 264.081 30.0153 264.071L27.7578 265.145ZM27.7578 265.145L25.4852 266.186C25.4901 266.197 25.4952 266.208 25.5003 266.219L27.7578 265.145ZM29.3859 268.769L27.0597 269.685L27.0597 269.685L29.3859 268.769ZM25.7154 366.341L28.2079 366.535L28.2079 366.535L25.7154 366.341ZM23.5749 393.971L26.0674 394.163L26.0674 394.163L23.5749 393.971ZM21.6828 424L19.1849 423.899C19.1575 424.579 19.4084 425.241 19.8798 425.732C20.3512 426.223 21.0023 426.5 21.6828 426.5V424ZM204.625 424V426.5C205.418 426.5 206.164 426.124 206.635 425.486C207.107 424.849 207.248 424.025 207.015 423.267L204.625 424ZM189.856 379.856L192.218 379.037L192.218 379.037L189.856 379.856ZM160.733 256.833L163.202 257.228L163.202 257.228L160.733 256.833ZM161.927 251.319L159.495 250.742L159.495 250.742L161.927 251.319ZM156.608 206.344L158.519 204.732L158.519 204.732L156.608 206.344ZM154.293 192.345L156.792 192.256L156.792 192.256L154.293 192.345ZM138.167 162.536L138.058 165.033L138.058 165.033L138.167 162.536ZM79.3455 156.674C79.0434 155.327 77.7063 154.48 76.3591 154.782C75.0118 155.084 74.1646 156.421 74.4667 157.768L79.3455 156.674ZM86.3102 202.727C86.6955 204.053 88.0827 204.815 89.4086 204.43C90.7344 204.044 91.4968 202.657 91.1115 201.331L86.3102 202.727ZM49.6775 187.752C49.2774 186.431 47.8818 185.684 46.5603 186.084C45.2389 186.484 44.492 187.88 44.8921 189.201L49.6775 187.752ZM51.4946 211.006C51.8947 212.327 53.2904 213.074 54.6118 212.674C55.9333 212.274 56.6802 210.878 56.28 209.557L51.4946 211.006ZM123.118 174.84C123.624 173.555 122.993 172.104 121.708 171.598C120.424 171.092 118.972 171.723 118.466 173.007L123.118 174.84ZM117.439 186.695L114.99 186.191L114.99 186.191L117.439 186.695ZM108.765 207.786L110.433 209.648L110.433 209.648L108.765 207.786ZM99.8645 265.085L101.451 263.153L101.451 263.153L99.8645 265.085ZM145.706 266.507C146.8 265.665 147.004 264.095 146.161 263.001C145.319 261.907 143.749 261.703 142.655 262.545L145.706 266.507ZM99.1992 140.539C101.466 140.64 103.893 142.236 106.392 145.438C108.838 148.573 110.999 152.803 112.804 157.163C114.599 161.497 115.989 165.832 116.933 169.095C117.403 170.724 117.761 172.077 117.999 173.02C118.119 173.491 118.208 173.86 118.268 174.108C118.297 174.232 118.319 174.326 118.334 174.388C118.341 174.419 118.346 174.442 118.349 174.457C118.351 174.464 118.352 174.469 118.353 174.472C118.353 174.474 118.354 174.475 118.354 174.475C118.354 174.475 118.354 174.475 118.354 174.476C118.354 174.475 118.354 174.475 120.792 173.924C123.23 173.372 123.23 173.372 123.23 173.371C123.23 173.371 123.23 173.37 123.23 173.369C123.229 173.367 123.229 173.365 123.228 173.362C123.227 173.357 123.225 173.349 123.223 173.34C123.219 173.32 123.212 173.293 123.204 173.257C123.187 173.185 123.163 173.081 123.131 172.947C123.067 172.678 122.972 172.287 122.846 171.793C122.596 170.804 122.224 169.396 121.736 167.707C120.761 164.335 119.313 159.812 117.424 155.25C115.546 150.715 113.181 146.012 110.334 142.362C107.539 138.78 103.905 135.742 99.4201 135.544L99.1992 140.539ZM79.3965 157.439C80.0651 149.81 82.7515 145.675 86.0785 143.39C89.5212 141.027 94.1176 140.315 99.1992 140.539L99.4201 135.544C93.8851 135.299 87.9956 136.009 83.2484 139.268C78.3857 142.607 75.1786 148.296 74.4156 157.003L79.3965 157.439ZM56.6439 151.77C60.0446 150.111 62.3786 149.911 64.7933 150.814C67.472 151.816 70.5731 154.284 75.1118 158.962L78.7004 155.48C74.1563 150.797 70.3758 147.563 66.5448 146.131C62.4498 144.599 58.646 145.23 54.4516 147.277L56.6439 151.77ZM48.3238 162.973C48.6501 161.332 49.0439 159.415 50.1732 157.456C51.2747 155.545 53.1544 153.473 56.6439 151.77L54.4516 147.277C50.0797 149.409 47.4488 152.171 45.8415 154.959C44.2619 157.699 43.7484 160.345 43.4198 161.998L48.3238 162.973ZM47.9217 164.722C48.0874 164.176 48.214 163.525 48.3238 162.973L43.4198 161.998C43.2926 162.637 43.2153 163.013 43.1367 163.272L47.9217 164.722ZM47.2848 188.477C49.7622 188.141 49.7622 188.141 49.7622 188.141C49.7621 188.141 49.7621 188.141 49.7621 188.14C49.762 188.14 49.7619 188.139 49.7618 188.138C49.7614 188.135 49.761 188.132 49.7603 188.127C49.759 188.118 49.7571 188.103 49.7545 188.084C49.7493 188.045 49.7415 187.987 49.7314 187.911C49.7112 187.759 49.6815 187.535 49.6441 187.248C49.5693 186.674 49.4635 185.849 49.3398 184.847C49.0922 182.841 48.7738 180.135 48.4893 177.322C48.2041 174.502 47.9561 171.605 47.8452 169.21C47.7897 168.01 47.7702 166.969 47.7935 166.143C47.8052 165.73 47.827 165.395 47.8558 165.134C47.8701 165.005 47.8849 164.905 47.8985 164.83C47.9126 164.753 47.9222 164.721 47.9217 164.722L43.1367 163.272C42.8969 164.063 42.8218 165.072 42.7955 166.001C42.7673 167.001 42.7921 168.179 42.8505 169.441C42.9676 171.969 43.2259 174.97 43.5147 177.825C43.8041 180.686 44.1271 183.431 44.3775 185.459C44.5027 186.474 44.61 187.31 44.6861 187.894C44.7241 188.186 44.7543 188.415 44.7751 188.571C44.7855 188.649 44.7935 188.709 44.799 188.75C44.8017 188.77 44.8038 188.785 44.8053 188.796C44.806 188.801 44.8065 188.805 44.8069 188.808C44.8071 188.809 44.8072 188.811 44.8073 188.811C44.8074 188.812 44.8074 188.812 44.8074 188.812C44.8075 188.812 44.8075 188.813 47.2848 188.477ZM28.5325 176.39C30.1389 176.123 31.9301 176.574 33.8827 177.697C35.831 178.818 37.7372 180.496 39.4481 182.319C41.1468 184.128 42.5777 185.998 43.5879 187.425C44.091 188.136 44.4849 188.729 44.7505 189.141C44.8832 189.347 44.9835 189.507 45.0492 189.613C45.082 189.666 45.1061 189.705 45.1213 189.73C45.1288 189.743 45.1342 189.751 45.1372 189.756C45.1387 189.759 45.1396 189.76 45.14 189.761C45.1402 189.761 45.1402 189.761 45.1401 189.761C45.14 189.761 45.1399 189.761 45.1398 189.761C45.1396 189.76 45.1393 189.76 47.2848 188.477C49.4303 187.193 49.43 187.193 49.4296 187.192C49.4295 187.192 49.429 187.191 49.4287 187.191C49.428 187.19 49.4272 187.188 49.4262 187.186C49.4242 187.183 49.4216 187.179 49.4184 187.174C49.4121 187.163 49.4034 187.149 49.3924 187.131C49.3705 187.095 49.3393 187.044 49.2991 186.979C49.2187 186.849 49.1025 186.664 48.9527 186.432C48.6534 185.968 48.219 185.313 47.6688 184.536C46.5723 182.987 44.9962 180.923 43.0933 178.896C41.2026 176.882 38.9128 174.823 36.3764 173.364C33.8443 171.907 30.8622 170.934 27.7127 171.457L28.5325 176.39ZM15.6468 194.221C15.8843 188.688 17.1698 184.576 19.2713 181.716C21.3291 178.915 24.3347 177.088 28.5325 176.39L27.7127 171.457C22.3985 172.341 18.1678 174.773 15.2421 178.755C12.3601 182.677 10.9149 187.869 10.6514 194.006L15.6468 194.221ZM21.6678 239.408C17.1219 221.066 14.8831 212.008 15.6468 194.221L10.6514 194.006C9.8551 212.553 12.2513 222.198 16.8146 240.611L21.6678 239.408ZM21.9554 240.569L21.6678 239.408L16.8146 240.611L17.1021 241.772L21.9554 240.569ZM30.0153 264.071C28.0797 260.002 25.358 254.305 21.9554 240.569L17.1021 241.771C20.6011 255.897 23.4516 261.912 25.5003 266.219L30.0153 264.071ZM30.0305 264.103L30.0305 264.103L25.4852 266.186L25.4852 266.186L30.0305 264.103ZM31.712 267.853C31.2119 266.583 30.629 265.36 30.0154 264.071L25.5003 266.219C26.129 267.54 26.6341 268.604 27.0597 269.685L31.712 267.853ZM28.2079 366.535C31.2887 326.854 33.027 304.47 33.584 290.982C34.1396 277.527 33.5514 272.524 31.712 267.853L27.0597 269.685C28.4823 273.297 29.1419 277.37 28.5883 290.776C28.0361 304.148 26.3083 326.408 23.2229 366.148L28.2079 366.535ZM26.0674 394.163C26.8425 384.121 27.5554 374.939 28.2079 366.535L23.2229 366.148C22.5704 374.552 21.8574 383.735 21.0823 393.779L26.0674 394.163ZM24.1808 424.101C24.5262 415.531 25.1831 405.622 26.0674 394.163L21.0823 393.779C20.1962 405.26 19.5339 415.239 19.1849 423.899L24.1808 424.101ZM21.6828 426.5H204.625V421.5H21.6828V426.5ZM187.494 380.675C192.923 396.329 198.14 411.376 202.235 424.733L207.015 423.267C202.889 409.807 197.638 394.667 192.218 379.037L187.494 380.675ZM158.265 256.438C156.033 270.376 159.492 290.149 165.32 311.836C171.178 333.63 179.56 357.796 187.494 380.675L192.218 379.037C184.269 356.116 175.951 332.127 170.149 310.538C164.318 288.842 161.157 270.004 163.202 257.228L158.265 256.438ZM159.495 250.742C158.991 252.866 158.521 254.836 158.265 256.438L163.202 257.228C163.422 255.852 163.839 254.089 164.36 251.897L159.495 250.742ZM154.697 207.956C166.259 221.659 162.197 239.362 159.495 250.742L164.36 251.897C166.966 240.92 171.926 220.623 158.519 204.732L154.697 207.956ZM151.795 192.434C151.907 195.554 152.014 198.621 152.346 201.191C152.661 203.636 153.237 206.226 154.697 207.956L158.519 204.732C158.085 204.218 157.616 202.965 157.305 200.551C157.009 198.26 156.906 195.449 156.792 192.256L151.795 192.434ZM138.058 165.033C141.348 165.176 143.669 166.157 145.381 167.59C147.126 169.049 148.418 171.129 149.364 173.743C151.293 179.073 151.562 185.934 151.795 192.434L156.792 192.256C156.567 185.97 156.315 178.255 154.066 172.041C152.923 168.883 151.212 165.948 148.59 163.755C145.936 161.535 142.527 160.223 138.276 160.038L138.058 165.033ZM123.118 174.84C124.381 171.633 125.991 169.147 128.228 167.488C130.427 165.858 133.493 164.834 138.058 165.033L138.276 160.038C132.816 159.8 128.554 161.023 125.25 163.472C121.985 165.892 119.919 169.318 118.466 173.007L123.118 174.84ZM74.4667 157.768C76.5376 167.003 79.5012 178.25 81.9404 187.167C83.1613 191.63 84.2532 195.519 85.0401 198.291C85.4335 199.678 85.7507 200.786 85.9697 201.547C86.0792 201.928 86.1642 202.223 86.2219 202.422C86.2507 202.522 86.2727 202.598 86.2875 202.649C86.2949 202.674 86.3006 202.694 86.3044 202.707C86.3063 202.713 86.3077 202.718 86.3087 202.722C86.3091 202.723 86.3095 202.725 86.3098 202.725C86.3099 202.726 86.31 202.726 86.3101 202.726C86.3101 202.727 86.3102 202.727 88.7108 202.029C91.1115 201.331 91.1115 201.331 91.1114 201.331C91.1114 201.331 91.1113 201.331 91.1112 201.33C91.111 201.33 91.1106 201.328 91.1102 201.327C91.1093 201.324 91.1079 201.319 91.1061 201.313C91.1025 201.3 91.097 201.282 91.0898 201.257C91.0753 201.206 91.0536 201.132 91.0251 201.033C90.9681 200.836 90.8838 200.544 90.7751 200.166C90.5575 199.409 90.2419 198.307 89.8501 196.926C89.0666 194.165 87.9791 190.293 86.7632 185.848C84.329 176.949 81.3903 165.793 79.3455 156.674L74.4667 157.768ZM44.8921 189.201L51.4946 211.006L56.28 209.557L49.6775 187.752L44.8921 189.201ZM118.466 173.007C116.859 177.089 115.902 181.766 114.99 186.191L119.887 187.2C120.82 182.673 121.699 178.444 123.118 174.84L118.466 173.007ZM114.99 186.191C114.145 190.293 113.335 194.202 112.107 197.673C110.883 201.132 109.316 203.936 107.097 205.924L110.433 209.648C113.522 206.882 115.453 203.207 116.821 199.341C118.184 195.488 119.057 191.228 119.887 187.2L114.99 186.191ZM107.097 205.924C97.1912 214.797 90.4754 226.183 88.4456 237.288C86.4056 248.45 89.1066 259.49 98.2785 267.017L101.451 263.153C93.9837 257.024 91.5744 247.979 93.3641 238.187C95.164 228.339 101.218 217.903 110.433 209.648L107.097 205.924ZM98.2785 267.017C109.628 276.332 121.615 276.162 130.593 273.711C135.061 272.492 138.814 270.705 141.446 269.229C142.766 268.489 143.813 267.822 144.538 267.334C144.9 267.09 145.183 266.891 145.38 266.748C145.478 266.677 145.555 266.621 145.61 266.58C145.637 266.559 145.659 266.543 145.675 266.531C145.683 266.525 145.689 266.52 145.695 266.516C145.697 266.514 145.699 266.512 145.701 266.51C145.702 266.51 145.703 266.509 145.704 266.509C145.705 266.508 145.706 266.507 144.181 264.526C142.655 262.545 142.656 262.545 142.657 262.544C142.657 262.544 142.658 262.544 142.658 262.543C142.658 262.543 142.658 262.543 142.658 262.543C142.658 262.543 142.656 262.545 142.653 262.547C142.646 262.552 142.635 262.561 142.617 262.574C142.583 262.6 142.527 262.641 142.45 262.697C142.296 262.808 142.059 262.975 141.746 263.186C141.119 263.608 140.187 264.203 139.001 264.868C136.62 266.203 133.25 267.803 129.277 268.888C121.372 271.046 111.201 271.155 101.451 263.153L98.2785 267.017Z" fill="#505050"/>
<path fill-rule="evenodd" clip-rule="evenodd" d="M395.5 350.607C377.643 339.893 358 320.877 358 309.536C358 298.194 366.794 289 377.643 289C385.534 289 392.338 293.865 395.462 300.882C398.549 293.874 405.401 289 413.357 289C424.205 289 433 298.061 433 309.238C433 320.415 413.357 340.048 395.5 350.607Z" fill="#FF5959"/>
<path d="M370 322C371.813 322 373.921 322 376 322C377.377 322 378.161 319.387 380 319.5C381.677 319.603 382.524 322 383.5 322C385.028 322 386 322 386 322L388 324.5L390.5 306L394.5 328.5L396.5 322H404.5C404.5 322 406.99 319.5 409 319.5C411.01 319.5 413.5 322 413.5 322H421.5" stroke="#FEFEFE" stroke-width="2" stroke-linecap="round"/>
<g filter="url(#filter2_i_80_43)">
<ellipse cx="313.151" cy="133.726" rx="161" ry="120" transform="rotate(5.05749 313.151 133.726)" fill="#FEFEFE"/>
</g>
<path d="M471.034 147.698C468.198 179.74 448.194 207.402 417.76 226.156C387.326 244.909 346.595 254.645 302.793 250.768C258.99 246.892 220.603 230.154 193.935 206.347C167.267 182.54 152.432 151.795 155.268 119.753C158.104 87.7114 178.108 60.0492 208.542 41.2958C238.976 22.5422 279.707 12.8067 323.509 16.6833C367.312 20.5598 405.699 37.2972 432.367 61.1043C459.035 84.9112 473.87 115.657 471.034 147.698Z" stroke="#505050" stroke-width="5"/>
<path fill-rule="evenodd" clip-rule="evenodd" d="M265.472 123.295C262.554 133.44 252.776 140.43 241.867 139.464C229.489 138.369 220.343 127.446 221.438 115.068C222.534 102.69 233.456 93.5439 245.834 94.6394C258.212 95.7348 267.359 106.657 266.263 119.035C266.194 119.82 266.085 120.592 265.938 121.349C283.388 126.139 294.008 128.016 312.507 129.653C331.344 131.32 342.182 131.308 360.805 129.564C360.8 128.852 360.829 128.134 360.893 127.41C361.989 115.032 372.911 105.886 385.289 106.981C397.667 108.077 406.814 118.999 405.718 131.377C404.623 143.755 393.7 152.901 381.322 151.806C370.352 150.835 361.92 142.145 360.907 131.564C342.214 133.31 331.26 133.321 312.331 131.645C293.734 130 283.001 128.104 265.472 123.295Z" fill="#121010"/>
<path d="M218.706 145.948C218.675 151.968 211.49 153.842 203.513 153.136C195.536 152.43 189.158 150.862 189.819 143.391C190.524 135.422 197.035 135.496 205.012 136.202C212.989 136.908 219.12 141.271 218.706 145.948Z" fill="#FF5959"/>
<path d="M403.011 162.259C401.984 168.191 408.722 171.297 416.692 172.003C424.662 172.708 431.212 172.284 431.873 164.813C432.578 156.844 426.161 155.774 418.191 155.069C410.221 154.363 403.425 157.582 403.011 162.259Z" fill="#FF5959"/>
<path d="M95.9834 94.0794C99.751 100.415 98.8507 112.735 98.8507 112.735C98.8507 112.735 103.942 101.48 110.278 97.7125C116.613 93.9449 128.933 94.8452 128.933 94.8452C128.933 94.8452 117.678 89.7536 113.911 83.4182C110.143 77.0829 111.043 64.7627 111.043 64.7627C111.043 64.7627 105.952 76.0176 99.6165 79.7852C93.2811 83.5527 80.9609 82.6525 80.9609 82.6525C80.9609 82.6525 92.2158 87.7441 95.9834 94.0794Z" fill="#FF5959"/>
<path d="M57.7466 65.2004C61.5109 68.9647 63.0726 77.7488 63.0726 77.7488C63.0726 77.7488 64.6343 68.9647 68.3987 65.2004C72.163 61.4361 80.947 59.8744 80.947 59.8744C80.947 59.8744 72.163 58.3127 68.3987 54.5484C64.6343 50.784 63.0726 42 63.0726 42C63.0726 42 61.5109 50.784 57.7466 54.5484C53.9823 58.3127 45.1982 59.8744 45.1982 59.8744C45.1982 59.8744 53.9823 61.4361 57.7466 65.2004Z" fill="#FF5959"/>
<path d="M28.653 127.049C38.4158 132.549 46.5557 149.472 46.5557 149.472C46.5557 149.472 44.7477 130.781 50.2475 121.018C55.7473 111.255 72.6706 103.115 72.6706 103.115C72.6706 103.115 53.9787 104.923 44.2159 99.4232C34.453 93.9234 26.3132 77.0001 26.3132 77.0001C26.3132 77.0001 28.1211 95.692 22.6213 105.455C17.1215 115.218 0.198242 123.358 0.198242 123.358C0.198242 123.358 18.8901 121.55 28.653 127.049Z" fill="#FF5959"/>
<rect x="24" y="421" width="560" height="6" fill="#FEFEFE"/>
<defs>
<filter id="filter0_i_80_43" x="37.1992" y="197" width="569" height="230" filterUnits="userSpaceOnUse" color-interpolation-filters="sRGB">
<feFlood flood-opacity="0" result="BackgroundImageFix"/>
<feBlend mode="normal" in="SourceGraphic" in2="BackgroundImageFix" result="shape"/>
<feColorMatrix in="SourceAlpha" type="matrix" values="0 0 0 0 0 0 0 0 0 0 0 0 0 0 0 0 0 0 127 0" result="hardAlpha"/>
<feOffset dx="23"/>
<feGaussianBlur stdDeviation="8.5"/>
<feComposite in2="hardAlpha" operator="arithmetic" k2="-1" k3="1"/>
<feColorMatrix type="matrix" values="0 0 0 0 0.313726 0 0 0 0 0.313726 0 0 0 0 0.313726 0 0 0 0.25 0"/>
<feBlend mode="normal" in2="shape" result="effect1_innerShadow_80_43"/>
</filter>
<filter id="filter1_i_80_43" x="105" y="172" width="411.579" height="255" filterUnits="userSpaceOnUse" color-interpolation-filters="sRGB">
<feFlood flood-opacity="0" result="BackgroundImageFix"/>
<feBlend mode="normal" in="SourceGraphic" in2="BackgroundImageFix" result="shape"/>
<feColorMatrix in="SourceAlpha" type="matrix" values="0 0 0 0 0 0 0 0 0 0 0 0 0 0 0 0 0 0 127 0" result="hardAlpha"/>
<feOffset dx="23"/>
<feGaussianBlur stdDeviation="8.5"/>
<feComposite in2="hardAlpha" operator="arithmetic" k2="-1" k3="1"/>
<feColorMatrix type="matrix" values="0 0 0 0 0.313726 0 0 0 0 0.313726 0 0 0 0 0.313726 0 0 0 0.25 0"/>
<feBlend mode="normal" in2="shape" result="effect1_innerShadow_80_43"/>
</filter>
<filter id="filter2_i_80_43" x="152.423" y="13.3416" width="338.456" height="240.768" filterUnits="userSpaceOnUse" color-interpolation-filters="sRGB">
<feFlood flood-opacity="0" result="BackgroundImageFix"/>
<feBlend mode="normal" in="SourceGraphic" in2="BackgroundImageFix" result="shape"/>
<feColorMatrix in="SourceAlpha" type="matrix" values="0 0 0 0 0 0 0 0 0 0 0 0 0 0 0 0 0 0 127 0" result="hardAlpha"/>
<feOffset dx="23"/>
<feGaussianBlur stdDeviation="8.5"/>
<feComposite in2="hardAlpha" operator="arithmetic" k2="-1" k3="1"/>
<feColorMatrix type="matrix" values="0 0 0 0 0.313726 0 0 0 0 0.313726 0 0 0 0 0.313726 0 0 0 0.25 0"/>
<feBlend mode="normal" in2="shape" result="effect1_innerShadow_80_43"/>
</filter>
</defs>
</svg>
