<svg width="590" height="427" viewBox="0 0 590 427" fill="none" xmlns="http://www.w3.org/2000/svg">
<mask id="path-1-inside-1_80_43" fill="white">
<path fill-rule="evenodd" clip-rule="evenodd" d="M37.2089 427H589.187C589.729 379.917 571.508 338.443 548.237 306.81C547.989 306.474 547.725 306.113 547.444 305.729C532.386 285.177 468.654 198.187 313.699 198V197C158.447 197 94.1006 284.998 78.974 305.684C78.6854 306.079 78.4147 306.449 78.1616 306.794C54.9227 338.439 36.7195 379.915 37.2089 427Z"/>
</mask>
<g filter="url(#filter0_i_80_43)">
<path fill-rule="evenodd" clip-rule="evenodd" d="M37.2089 427H589.187C589.729 379.917 571.508 338.443 548.237 306.81C547.989 306.474 547.725 306.113 547.444 305.729C532.386 285.177 468.654 198.187 313.699 198V197C158.447 197 94.1006 284.998 78.974 305.684C78.6854 306.079 78.4147 306.449 78.1616 306.794C54.9227 338.439 36.7195 379.915 37.2089 427Z" fill="#FEFEFE"/>
</g>
<path d="M37.2089 427L32.2091 427.052L32.2606 432H37.2089V427ZM589.187 427V432H594.13L594.187 427.057L589.187 427ZM548.237 306.81L552.264 303.847L552.264 303.847L548.237 306.81ZM547.444 305.729L543.411 308.684L543.411 308.684L547.444 305.729ZM313.699 198H308.699V202.994L313.693 203L313.699 198ZM313.699 197H318.699V192L313.699 192L313.699 197ZM78.974 305.684L83.0101 308.635L83.0101 308.635L78.974 305.684ZM78.1616 306.794L74.1315 303.834L74.1315 303.834L78.1616 306.794ZM37.2089 432H589.187V422H37.2089V432ZM544.209 309.773C567.011 340.769 584.713 381.207 584.188 426.943L594.187 427.057C594.744 378.628 576.004 336.118 552.264 303.847L544.209 309.773ZM543.411 308.684C543.691 309.067 543.958 309.432 544.209 309.773L552.264 303.847C552.02 303.516 551.759 303.159 551.477 302.774L543.411 308.684ZM313.693 203C466.327 203.184 528.757 288.684 543.411 308.684L551.477 302.774C536.015 281.67 470.981 193.19 313.705 193L313.693 203ZM308.699 197V198H318.699V197H308.699ZM83.0101 308.635C97.7429 288.487 160.785 202 313.699 202L313.699 192C156.108 192 90.4582 281.508 74.938 302.733L83.0101 308.635ZM82.1916 309.753C82.4483 309.404 82.7222 309.029 83.0101 308.635L74.938 302.733C74.6486 303.128 74.381 303.494 74.1315 303.834L82.1916 309.753ZM42.2086 426.948C41.7332 381.205 59.4206 340.761 82.1916 309.753L74.1315 303.834C50.4247 336.116 31.7058 378.625 32.2091 427.052L42.2086 426.948Z" fill="#505050" mask="url(#path-1-inside-1_80_43)"/>
<mask id="path-3-inside-2_80_43" fill="white">
<path fill-rule="evenodd" clip-rule="evenodd" d="M499.579 427C493.512 388.463 482.44 351.051 470.418 323C450.918 277.5 402.918 178 330.418 172C216.673 172 164.7 277.525 151.938 303.437C151.349 304.634 150.843 305.661 150.418 306.5C134.651 337.667 114.582 377.44 105 427H499.579Z"/>
</mask>
<g filter="url(#filter1_i_80_43)">
<path fill-rule="evenodd" clip-rule="evenodd" d="M499.579 427C493.512 388.463 482.44 351.051 470.418 323C450.918 277.5 402.918 178 330.418 172C216.673 172 164.7 277.525 151.938 303.437C151.349 304.634 150.843 305.661 150.418 306.5C134.651 337.667 114.582 377.44 105 427H499.579Z" fill="#FEFEFE"/>
</g>
<path d="M499.579 427V432H505.428L504.518 426.222L499.579 427ZM330.418 172L330.831 167.017L330.625 167H330.418V172ZM151.938 303.437L147.453 301.228L147.453 301.228L151.938 303.437ZM150.418 306.5L145.957 304.243L145.957 304.243L150.418 306.5ZM105 427L100.091 426.051L98.9407 432H105V427ZM465.823 324.97C477.672 352.618 488.634 389.628 494.64 427.778L504.518 426.222C498.39 387.298 487.208 349.483 475.014 321.03L465.823 324.97ZM330.006 176.983C364.062 179.801 393.041 204.704 416.294 235.689C439.428 266.513 456.115 302.319 465.823 324.97L475.014 321.03C465.222 298.181 448.159 261.487 424.293 229.686C400.546 198.046 369.275 170.199 330.831 167.017L330.006 176.983ZM156.424 305.646C162.773 292.755 178.672 260.507 206.894 231.487C235.055 202.531 275.268 177 330.418 177V167C271.824 167 229.178 194.231 199.725 224.516C170.334 254.737 153.866 288.207 147.453 301.228L156.424 305.646ZM154.88 308.757C155.319 307.889 155.838 306.835 156.424 305.646L147.453 301.228C146.859 302.433 146.367 303.433 145.957 304.243L154.88 308.757ZM109.909 427.949C119.344 379.148 139.108 339.934 154.88 308.757L145.957 304.243C130.195 335.401 109.82 375.732 100.091 426.051L109.909 427.949ZM105 432H499.579V422H105V432Z" fill="#505050" mask="url(#path-3-inside-2_80_43)"/>
<path fill-rule="evenodd" clip-rule="evenodd" d="M120.792 176.924C120.792 176.924 112.812 141.639 99.3096 141.042C88.6931 140.572 78.3376 143.885 76.9061 160.221C67.8233 150.859 63.1429 148.818 55.5477 152.524C47.6863 156.359 46.5267 162.191 45.8718 165.485C45.7533 166.081 45.6513 166.594 45.5292 166.997C44.4491 170.56 47.2848 191.477 47.2848 191.477C47.2848 191.477 37.6345 175.343 28.1226 176.924C18.6106 178.505 13.6501 185.443 13.1491 197.113C12.3691 215.281 14.6866 224.632 19.2412 243.01L19.5288 244.17C22.9795 258.101 25.7656 263.957 27.7578 268.145L27.7578 268.145C28.379 269.45 28.923 270.594 29.3859 271.769C32.6478 280.052 31.8815 289.921 25.7154 369.341C25.0629 377.745 24.3499 386.928 23.5749 396.971C22.7938 407.091 22.1884 416.024 21.8182 423.904H203.666C199.715 411.286 194.867 397.305 189.856 382.856C173.973 337.055 156.457 286.547 160.733 259.833C160.972 258.344 161.415 256.478 161.927 254.319C164.581 243.141 169.093 224.141 156.608 209.344C154.714 207.1 154.519 201.659 154.293 195.345C153.836 182.559 153.25 166.192 138.167 165.536C128.143 165.099 123.508 170.028 120.792 176.924Z" fill="#FEFEFE"/>
<path d="M99.3096 141.042L99.1992 143.539L99.1992 143.539L99.3096 141.042ZM120.792 176.924L118.354 177.475C118.596 178.545 119.507 179.333 120.601 179.416C121.695 179.5 122.716 178.861 123.118 177.84L120.792 176.924ZM76.9061 160.221L75.1118 161.962C75.793 162.664 76.8213 162.904 77.7432 162.577C78.6651 162.249 79.3111 161.414 79.3965 160.439L76.9061 160.221ZM55.5477 152.524L54.4516 150.277L54.4516 150.277L55.5477 152.524ZM45.8718 165.485L43.4198 164.998L43.4198 164.998L45.8718 165.485ZM45.5292 166.997L43.1367 166.272L43.1367 166.272L45.5292 166.997ZM47.2848 191.477L45.1393 192.76C45.7488 193.779 46.9907 194.229 48.1112 193.836C49.2317 193.444 49.9217 192.317 49.7622 191.141L47.2848 191.477ZM28.1226 176.924L28.5325 179.39L28.1226 176.924ZM13.1491 197.113L10.6514 197.006L10.6514 197.006L13.1491 197.113ZM19.2412 243.01L21.6678 242.408L21.6678 242.408L19.2412 243.01ZM19.5288 244.17L21.9554 243.569L21.9554 243.569L19.5288 244.17ZM27.7578 268.145L30.0305 267.103C30.0255 267.092 30.0205 267.081 30.0153 267.071L27.7578 268.145ZM27.7578 268.145L25.4852 269.186C25.4901 269.197 25.4952 269.208 25.5003 269.219L27.7578 268.145ZM29.3859 271.769L27.0597 272.685L27.0597 272.685L29.3859 271.769ZM25.7154 369.341L28.2079 369.535L28.2079 369.535L25.7154 369.341ZM23.5749 396.971L26.0674 397.163L26.0674 397.163L23.5749 396.971ZM21.8182 423.904L19.321 423.786C19.2889 424.469 19.5377 425.135 20.0095 425.63C20.4812 426.124 21.1348 426.404 21.8182 426.404V423.904ZM203.666 423.904V426.404C204.461 426.404 205.209 426.025 205.68 425.384C206.151 424.743 206.289 423.916 206.052 423.157L203.666 423.904ZM189.856 382.856L187.494 383.675L187.494 383.675L189.856 382.856ZM160.733 259.833L163.202 260.228L163.202 260.228L160.733 259.833ZM161.927 254.319L159.495 253.742L159.495 253.742L161.927 254.319ZM156.608 209.344L158.519 207.732L158.519 207.732L156.608 209.344ZM154.293 195.345L156.792 195.256L156.792 195.256L154.293 195.345ZM138.167 165.536L138.058 168.033L138.058 168.033L138.167 165.536ZM79.3455 159.674C79.0434 158.327 77.7063 157.48 76.3591 157.782C75.0118 158.084 74.1646 159.421 74.4667 160.768L79.3455 159.674ZM86.3102 205.727C86.6955 207.053 88.0827 207.815 89.4086 207.43C90.7344 207.044 91.4968 205.657 91.1115 204.331L86.3102 205.727ZM49.6775 190.752C49.2774 189.431 47.8818 188.684 46.5603 189.084C45.2389 189.484 44.492 190.88 44.8921 192.201L49.6775 190.752ZM51.4946 214.006C51.8947 215.327 53.2904 216.074 54.6118 215.674C55.9333 215.274 56.6802 213.878 56.28 212.557L51.4946 214.006ZM123.118 177.84C123.624 176.555 122.993 175.104 121.708 174.598C120.424 174.092 118.972 174.723 118.466 176.007L123.118 177.84ZM117.439 189.695L114.99 189.191L114.99 189.191L117.439 189.695ZM108.765 210.786L107.097 208.924L107.097 208.924L108.765 210.786ZM99.8645 268.085L98.2785 270.017L98.2785 270.017L99.8645 268.085ZM145.706 269.507C146.8 268.665 147.004 267.095 146.161 266.001C145.319 264.907 143.749 264.703 142.655 265.545L145.706 269.507ZM99.1992 143.539C101.466 143.64 103.893 145.236 106.392 148.438C108.838 151.573 110.999 155.803 112.804 160.163C114.599 164.497 115.989 168.832 116.933 172.095C117.403 173.724 117.761 175.077 117.999 176.02C118.119 176.491 118.208 176.86 118.268 177.108C118.297 177.232 118.319 177.326 118.334 177.388C118.341 177.419 118.346 177.442 118.349 177.457C118.351 177.464 118.352 177.469 118.353 177.472C118.353 177.474 118.354 177.475 118.354 177.475C118.354 177.475 118.354 177.475 118.354 177.476C118.354 177.475 118.354 177.475 120.792 176.924C123.23 176.372 123.23 176.372 123.23 176.371C123.23 176.371 123.23 176.37 123.23 176.369C123.229 176.367 123.229 176.365 123.228 176.362C123.227 176.357 123.225 176.349 123.223 176.34C123.219 176.32 123.212 176.293 123.204 176.257C123.187 176.185 123.163 176.081 123.131 175.947C123.067 175.678 122.972 175.287 122.846 174.793C122.596 173.804 122.224 172.396 121.736 170.707C120.761 167.335 119.313 162.812 117.424 158.25C115.546 153.715 113.181 149.012 110.334 145.362C107.539 141.78 103.905 138.742 99.4201 138.544L99.1992 143.539ZM79.3965 160.439C80.0651 152.81 82.7515 148.675 86.0785 146.39C89.5212 144.027 94.1176 143.315 99.1992 143.539L99.4201 138.544C93.8851 138.299 87.9956 139.009 83.2484 142.268C78.3857 145.607 75.1786 151.296 74.4156 160.003L79.3965 160.439ZM56.6439 154.77C60.0446 153.111 62.3786 152.911 64.7933 153.814C67.472 154.816 70.5731 157.284 75.1118 161.962L78.7004 158.48C74.1563 153.797 70.3758 150.563 66.5448 149.131C62.4498 147.599 58.646 148.23 54.4516 150.277L56.6439 154.77ZM48.3238 165.973C48.6501 164.332 49.0439 162.415 50.1732 160.456C51.2747 158.545 53.1544 156.473 56.6439 154.77L54.4516 150.277C50.0797 152.409 47.4488 155.171 45.8415 157.959C44.2619 160.699 43.7484 163.345 43.4198 164.998L48.3238 165.973ZM47.9217 167.722C48.0874 167.176 48.214 166.525 48.3238 165.973L43.4198 164.998C43.2926 165.637 43.2153 166.013 43.1367 166.272L47.9217 167.722ZM47.2848 191.477C49.7622 191.141 49.7622 191.141 49.7622 191.141C49.7621 191.141 49.7621 191.141 49.7621 191.14C49.762 191.14 49.7619 191.139 49.7618 191.138C49.7614 191.135 49.761 191.132 49.7603 191.127C49.759 191.118 49.7571 191.103 49.7545 191.084C49.7493 191.045 49.7415 190.987 49.7314 190.911C49.7112 190.759 49.6815 190.535 49.6441 190.248C49.5693 189.674 49.4635 188.849 49.3398 187.847C49.0922 185.841 48.7738 183.135 48.4893 180.322C48.2041 177.502 47.9561 174.605 47.8452 172.21C47.7897 171.01 47.7702 169.969 47.7935 169.143C47.8052 168.73 47.827 168.395 47.8558 168.134C47.8701 168.005 47.8849 167.905 47.8985 167.83C47.9126 167.753 47.9222 167.721 47.9217 167.722L43.1367 166.272C42.8969 167.063 42.8218 168.072 42.7955 169.001C42.7673 170.001 42.7921 171.179 42.8505 172.441C42.9676 174.969 43.2259 177.97 43.5147 180.825C43.8041 183.686 44.1271 186.431 44.3775 188.459C44.5027 189.474 44.61 190.31 44.6861 190.894C44.7241 191.186 44.7543 191.415 44.7751 191.571C44.7855 191.649 44.7935 191.709 44.799 191.75C44.8017 191.77 44.8038 191.785 44.8053 191.796C44.806 191.801 44.8065 191.805 44.8069 191.808C44.8071 191.809 44.8072 191.811 44.8073 191.811C44.8074 191.812 44.8074 191.812 44.8074 191.812C44.8075 191.812 44.8075 191.813 47.2848 191.477ZM28.5325 179.39C30.1389 179.123 31.9301 179.574 33.8827 180.697C35.831 181.818 37.7372 183.496 39.4481 185.319C41.1468 187.128 42.5777 188.998 43.5879 190.425C44.091 191.136 44.4849 191.729 44.7505 192.141C44.8832 192.347 44.9835 192.507 45.0492 192.613C45.082 192.666 45.1061 192.705 45.1213 192.73C45.1288 192.743 45.1342 192.751 45.1372 192.756C45.1387 192.759 45.1396 192.76 45.14 192.761C45.1402 192.761 45.1402 192.761 45.1401 192.761C45.14 192.761 45.1399 192.761 45.1398 192.761C45.1396 192.76 45.1393 192.76 47.2848 191.477C49.4303 190.193 49.43 190.193 49.4296 190.192C49.4295 190.192 49.429 190.191 49.4287 190.191C49.428 190.19 49.4272 190.188 49.4262 190.186C49.4242 190.183 49.4216 190.179 49.4184 190.174C49.4121 190.163 49.4034 190.149 49.3924 190.131C49.3705 190.095 49.3393 190.044 49.2991 189.979C49.2187 189.849 49.1025 189.664 48.9527 189.432C48.6534 188.968 48.219 188.313 47.6688 187.536C46.5723 185.987 44.9962 183.923 43.0933 181.896C41.2026 179.882 38.9128 177.823 36.3764 176.364C33.8443 174.907 30.8622 173.934 27.7127 174.457L28.5325 179.39ZM15.6468 197.221C15.8843 191.688 17.1698 187.576 19.2713 184.716C21.3291 181.915 24.3347 180.088 28.5325 179.39L27.7127 174.457C22.3985 175.341 18.1678 177.773 15.2421 181.755C12.3601 185.677 10.9149 190.869 10.6514 197.006L15.6468 197.221ZM21.6678 242.408C17.1219 224.066 14.8831 215.008 15.6468 197.221L10.6514 197.006C9.8551 215.553 12.2513 225.198 16.8146 243.611L21.6678 242.408ZM21.9554 243.569L21.6678 242.408L16.8146 243.611L17.1021 244.772L21.9554 243.569ZM30.0153 267.071C28.0797 263.002 25.358 257.305 21.9554 243.569L17.1021 244.771C20.6011 258.897 23.4516 264.912 25.5003 269.219L30.0153 267.071ZM30.0305 267.103L30.0305 267.103L25.4852 269.186L25.4852 269.186L30.0305 267.103ZM31.712 270.853C31.2119 269.583 30.629 268.36 30.0154 267.071L25.5003 269.219C26.129 270.54 26.6341 271.604 27.0597 272.685L31.712 270.853ZM28.2079 369.535C31.2887 329.854 33.027 307.47 33.584 293.982C34.1396 280.527 33.5514 275.524 31.712 270.853L27.0597 272.685C28.4823 276.297 29.1419 280.37 28.5883 293.776C28.0361 307.148 26.3083 329.408 23.2229 369.148L28.2079 369.535ZM26.0674 397.163C26.8425 387.121 27.5554 377.939 28.2079 369.535L23.2229 369.148C22.5704 377.552 21.8574 386.735 21.0823 396.779L26.0674 397.163ZM24.3155 424.021C24.684 416.177 25.2872 407.273 26.0674 397.163L21.0823 396.779C20.3004 406.91 19.6929 415.871 19.321 423.786L24.3155 424.021ZM21.8182 426.404H203.666V421.404H21.8182V426.404ZM187.494 383.675C192.508 398.134 197.343 412.077 201.28 424.651L206.052 423.157C202.088 410.496 197.226 396.477 192.218 382.037L187.494 383.675ZM158.265 259.438C156.033 273.376 159.492 293.149 165.32 314.836C171.178 336.63 179.56 360.796 187.494 383.675L192.218 382.037C184.269 359.116 175.951 335.127 170.149 313.538C164.318 291.842 161.157 273.004 163.202 260.228L158.265 259.438ZM159.495 253.742C158.991 255.866 158.521 257.836 158.265 259.438L163.202 260.228C163.422 258.852 163.839 257.089 164.36 254.897L159.495 253.742ZM154.697 210.956C166.259 224.659 162.197 242.362 159.495 253.742L164.36 254.897C166.966 243.92 171.926 223.623 158.519 207.732L154.697 210.956ZM151.795 195.434C151.907 198.554 152.014 201.621 152.346 204.191C152.661 206.636 153.237 209.226 154.697 210.956L158.519 207.732C158.085 207.218 157.616 205.965 157.305 203.551C157.009 201.26 156.906 198.449 156.792 195.256L151.795 195.434ZM138.058 168.033C141.348 168.176 143.669 169.157 145.381 170.59C147.126 172.049 148.418 174.129 149.364 176.743C151.293 182.073 151.562 188.934 151.795 195.434L156.792 195.256C156.567 188.97 156.315 181.255 154.066 175.041C152.923 171.883 151.212 168.948 148.59 166.755C145.936 164.535 142.527 163.223 138.276 163.038L138.058 168.033ZM123.118 177.84C124.381 174.633 125.991 172.147 128.228 170.488C130.427 168.858 133.493 167.834 138.058 168.033L138.276 163.038C132.816 162.8 128.554 164.023 125.25 166.472C121.985 168.892 119.919 172.318 118.466 176.007L123.118 177.84ZM74.4667 160.768C76.5376 170.003 79.5012 181.25 81.9404 190.167C83.1613 194.63 84.2532 198.519 85.0401 201.291C85.4335 202.678 85.7507 203.786 85.9697 204.547C86.0792 204.928 86.1642 205.223 86.2219 205.422C86.2507 205.522 86.2727 205.598 86.2875 205.649C86.2949 205.674 86.3006 205.694 86.3044 205.707C86.3063 205.713 86.3077 205.718 86.3087 205.722C86.3091 205.723 86.3095 205.725 86.3098 205.725C86.3099 205.726 86.31 205.726 86.3101 205.726C86.3101 205.727 86.3102 205.727 88.7108 205.029C91.1115 204.331 91.1115 204.331 91.1114 204.331C91.1114 204.331 91.1113 204.331 91.1112 204.33C91.111 204.33 91.1106 204.328 91.1102 204.327C91.1093 204.324 91.1079 204.319 91.1061 204.313C91.1025 204.3 91.097 204.282 91.0898 204.256C91.0753 204.206 91.0536 204.132 91.0251 204.033C90.9681 203.836 90.8838 203.544 90.7751 203.166C90.5575 202.409 90.2419 201.307 89.8501 199.926C89.0666 197.165 87.9791 193.293 86.7632 188.848C84.329 179.949 81.3903 168.793 79.3455 159.674L74.4667 160.768ZM44.8921 192.201L51.4946 214.006L56.28 212.557L49.6775 190.752L44.8921 192.201ZM118.466 176.007C116.859 180.089 115.902 184.766 114.99 189.191L119.887 190.2C120.82 185.673 121.699 181.444 123.118 177.84L118.466 176.007ZM114.99 189.191C114.145 193.293 113.335 197.202 112.107 200.673C110.883 204.132 109.316 206.936 107.097 208.924L110.433 212.648C113.522 209.882 115.453 206.207 116.821 202.341C118.184 198.488 119.057 194.228 119.887 190.2L114.99 189.191ZM107.097 208.924C97.1912 217.797 90.4754 229.183 88.4456 240.288C86.4056 251.45 89.1066 262.49 98.2785 270.017L101.451 266.153C93.9837 260.024 91.5744 250.979 93.3641 241.187C95.164 231.339 101.218 220.903 110.433 212.648L107.097 208.924ZM98.2785 270.017C109.628 279.332 121.615 279.162 130.593 276.711C135.061 275.492 138.814 273.705 141.446 272.229C142.766 271.489 143.813 270.822 144.538 270.334C144.9 270.09 145.183 269.891 145.38 269.748C145.478 269.677 145.555 269.621 145.61 269.58C145.637 269.559 145.659 269.543 145.675 269.531C145.683 269.525 145.689 269.52 145.695 269.516C145.697 269.514 145.699 269.512 145.701 269.51C145.702 269.51 145.703 269.509 145.704 269.509C145.705 269.508 145.706 269.507 144.181 267.526C142.655 265.545 142.656 265.545 142.657 265.544C142.657 265.544 142.658 265.544 142.658 265.543C142.658 265.543 142.658 265.543 142.658 265.543C142.658 265.543 142.656 265.545 142.653 265.547C142.646 265.552 142.635 265.561 142.617 265.574C142.583 265.6 142.527 265.641 142.45 265.697C142.296 265.808 142.059 265.975 141.746 266.186C141.119 266.608 140.187 267.203 139.001 267.868C136.62 269.203 133.25 270.803 129.277 271.888C121.372 274.046 111.201 274.155 101.451 266.153L98.2785 270.017Z" fill="#505050"/>
<path fill-rule="evenodd" clip-rule="evenodd" d="M395.5 350.607C377.643 339.893 358 320.877 358 309.536C358 298.194 366.794 289 377.643 289C385.534 289 392.338 293.865 395.462 300.882C398.549 293.874 405.401 289 413.357 289C424.205 289 433 298.061 433 309.238C433 320.415 413.357 340.048 395.5 350.607Z" fill="#FF5959"/>
<path d="M370 322C371.813 322 373.921 322 376 322C377.377 322 378.161 319.387 380 319.5C381.677 319.603 382.524 322 383.5 322C385.028 322 386 322 386 322L388 324.5L390.5 306L394.5 328.5L396.5 322H404.5C404.5 322 406.99 319.5 409 319.5C411.01 319.5 413.5 322 413.5 322H421.5" stroke="#FEFEFE" stroke-width="2" stroke-linecap="round"/>
<g filter="url(#filter2_i_80_43)">
<ellipse cx="313.151" cy="133.726" rx="161" ry="120" transform="rotate(5.05749 313.151 133.726)" fill="#FEFEFE"/>
</g>
<path d="M471.034 147.698C468.198 179.74 448.194 207.402 417.76 226.156C387.326 244.909 346.595 254.645 302.793 250.768C258.99 246.892 220.603 230.154 193.935 206.347C167.267 182.54 152.432 151.795 155.268 119.753C158.104 87.7114 178.108 60.0492 208.542 41.2958C238.976 22.5422 279.707 12.8067 323.509 16.6833C367.312 20.5598 405.699 37.2972 432.367 61.1043C459.035 84.9112 473.87 115.657 471.034 147.698Z" stroke="#505050" stroke-width="5"/>
<path fill-rule="evenodd" clip-rule="evenodd" d="M265.472 123.295C262.554 133.44 252.776 140.43 241.867 139.464C229.489 138.369 220.343 127.446 221.438 115.068C222.534 102.69 233.456 93.5439 245.834 94.6394C258.212 95.7348 267.359 106.657 266.263 119.035C266.194 119.82 266.085 120.592 265.938 121.349C283.388 126.139 294.008 128.016 312.507 129.653C331.344 131.32 342.182 131.308 360.805 129.564C360.8 128.852 360.829 128.134 360.893 127.41C361.989 115.032 372.911 105.886 385.289 106.981C397.667 108.077 406.814 118.999 405.718 131.377C404.623 143.755 393.7 152.901 381.322 151.806C370.352 150.835 361.92 142.145 360.907 131.564C342.214 133.31 331.26 133.321 312.331 131.645C293.734 130 283.001 128.104 265.472 123.295Z" fill="#121010"/>
<path d="M218.706 145.948C218.675 151.968 211.49 153.842 203.513 153.136C195.536 152.43 189.158 150.862 189.819 143.391C190.524 135.422 197.035 135.496 205.012 136.202C212.989 136.908 219.12 141.271 218.706 145.948Z" fill="#FF5959"/>
<path d="M403.011 162.259C401.984 168.191 408.722 171.297 416.692 172.003C424.662 172.708 431.212 172.284 431.873 164.813C432.578 156.844 426.161 155.774 418.191 155.069C410.221 154.363 403.425 157.582 403.011 162.259Z" fill="#FF5959"/>
<path d="M95.9834 94.0794C99.751 100.415 98.8507 112.735 98.8507 112.735C98.8507 112.735 103.942 101.48 110.278 97.7125C116.613 93.9449 128.933 94.8452 128.933 94.8452C128.933 94.8452 117.678 89.7536 113.911 83.4182C110.143 77.0829 111.043 64.7627 111.043 64.7627C111.043 64.7627 105.952 76.0176 99.6165 79.7852C93.2811 83.5527 80.9609 82.6525 80.9609 82.6525C80.9609 82.6525 92.2158 87.7441 95.9834 94.0794Z" fill="#FF5959"/>
<path d="M57.7466 65.2004C61.5109 68.9647 63.0726 77.7488 63.0726 77.7488C63.0726 77.7488 64.6343 68.9647 68.3987 65.2004C72.163 61.4361 80.947 59.8744 80.947 59.8744C80.947 59.8744 72.163 58.3127 68.3987 54.5484C64.6343 50.784 63.0726 42 63.0726 42C63.0726 42 61.5109 50.784 57.7466 54.5484C53.9823 58.3127 45.1982 59.8744 45.1982 59.8744C45.1982 59.8744 53.9823 61.4361 57.7466 65.2004Z" fill="#FF5959"/>
<path d="M28.653 127.049C38.4158 132.549 46.5557 149.472 46.5557 149.472C46.5557 149.472 44.7477 130.781 50.2475 121.018C55.7473 111.255 72.6706 103.115 72.6706 103.115C72.6706 103.115 53.9787 104.923 44.2159 99.4232C34.453 93.9234 26.3132 77.0001 26.3132 77.0001C26.3132 77.0001 28.1211 95.692 22.6213 105.455C17.1215 115.218 0.198242 123.358 0.198242 123.358C0.198242 123.358 18.8901 121.55 28.653 127.049Z" fill="#FF5959"/>
<defs>
<filter id="filter0_i_80_43" x="37.1992" y="197" width="569" height="230" filterUnits="userSpaceOnUse" color-interpolation-filters="sRGB">
<feFlood flood-opacity="0" result="BackgroundImageFix"/>
<feBlend mode="normal" in="SourceGraphic" in2="BackgroundImageFix" result="shape"/>
<feColorMatrix in="SourceAlpha" type="matrix" values="0 0 0 0 0 0 0 0 0 0 0 0 0 0 0 0 0 0 127 0" result="hardAlpha"/>
<feOffset dx="23"/>
<feGaussianBlur stdDeviation="8.5"/>
<feComposite in2="hardAlpha" operator="arithmetic" k2="-1" k3="1"/>
<feColorMatrix type="matrix" values="0 0 0 0 0.313726 0 0 0 0 0.313726 0 0 0 0 0.313726 0 0 0 0.25 0"/>
<feBlend mode="normal" in2="shape" result="effect1_innerShadow_80_43"/>
</filter>
<filter id="filter1_i_80_43" x="105" y="172" width="411.579" height="255" filterUnits="userSpaceOnUse" color-interpolation-filters="sRGB">
<feFlood flood-opacity="0" result="BackgroundImageFix"/>
<feBlend mode="normal" in="SourceGraphic" in2="BackgroundImageFix" result="shape"/>
<feColorMatrix in="SourceAlpha" type="matrix" values="0 0 0 0 0 0 0 0 0 0 0 0 0 0 0 0 0 0 127 0" result="hardAlpha"/>
<feOffset dx="23"/>
<feGaussianBlur stdDeviation="8.5"/>
<feComposite in2="hardAlpha" operator="arithmetic" k2="-1" k3="1"/>
<feColorMatrix type="matrix" values="0 0 0 0 0.313726 0 0 0 0 0.313726 0 0 0 0 0.313726 0 0 0 0.25 0"/>
<feBlend mode="normal" in2="shape" result="effect1_innerShadow_80_43"/>
</filter>
<filter id="filter2_i_80_43" x="152.423" y="13.3416" width="338.456" height="240.768" filterUnits="userSpaceOnUse" color-interpolation-filters="sRGB">
<feFlood flood-opacity="0" result="BackgroundImageFix"/>
<feBlend mode="normal" in="SourceGraphic" in2="BackgroundImageFix" result="shape"/>
<feColorMatrix in="SourceAlpha" type="matrix" values="0 0 0 0 0 0 0 0 0 0 0 0 0 0 0 0 0 0 127 0" result="hardAlpha"/>
<feOffset dx="23"/>
<feGaussianBlur stdDeviation="8.5"/>
<feComposite in2="hardAlpha" operator="arithmetic" k2="-1" k3="1"/>
<feColorMatrix type="matrix" values="0 0 0 0 0.313726 0 0 0 0 0.313726 0 0 0 0 0.313726 0 0 0 0.25 0"/>
<feBlend mode="normal" in2="shape" result="effect1_innerShadow_80_43"/>
</filter>
</defs>
</svg>
