<svg width="552" height="423" viewBox="0 0 552 423" fill="none" xmlns="http://www.w3.org/2000/svg">
<mask id="path-1-inside-1_80_61" fill="white">
<path fill-rule="evenodd" clip-rule="evenodd" d="M0.00950841 423H551.988C552.529 375.917 534.308 334.443 511.038 302.81C510.79 302.474 510.526 302.113 510.245 301.729C495.187 281.177 431.455 194.187 276.5 194V193C121.247 193 56.9012 280.998 41.7747 301.684C41.486 302.079 41.2153 302.449 40.9622 302.794C17.7233 334.439 -0.47983 375.915 0.00950841 423Z"/>
</mask>
<g filter="url(#filter0_i_80_61)">
<path fill-rule="evenodd" clip-rule="evenodd" d="M0.00950841 423H551.988C552.529 375.917 534.308 334.443 511.038 302.81C510.79 302.474 510.526 302.113 510.245 301.729C495.187 281.177 431.455 194.187 276.5 194V193C121.247 193 56.9012 280.998 41.7747 301.684C41.486 302.079 41.2153 302.449 40.9622 302.794C17.7233 334.439 -0.47983 375.915 0.00950841 423Z" fill="#FEFEFE"/>
</g>
<path d="M0.00963839 423L-4.99009 423.052L-4.93867 428H0.00963839V423ZM551.988 423V428H556.931L556.988 423.057L551.988 423ZM511.038 302.81L515.065 299.847L515.065 299.847L511.038 302.81ZM510.245 301.729L506.211 304.684L506.211 304.684L510.245 301.729ZM276.5 194H271.5V198.994L276.494 199L276.5 194ZM276.5 193H281.5V188L276.5 188L276.5 193ZM41.7748 301.684L45.8109 304.635L45.8109 304.635L41.7748 301.684ZM40.9623 302.794L36.9323 299.834L36.9323 299.834L40.9623 302.794ZM0.00963839 428H551.988V418H0.00963839V428ZM507.01 305.773C529.812 336.769 547.514 377.207 546.989 422.943L556.988 423.057C557.545 374.628 538.805 332.118 515.065 299.847L507.01 305.773ZM506.211 304.684C506.492 305.067 506.759 305.432 507.01 305.773L515.065 299.847C514.821 299.516 514.56 299.159 514.278 298.774L506.211 304.684ZM276.494 199C429.128 199.184 491.558 284.684 506.211 304.684L514.278 298.774C498.816 277.67 433.782 189.19 276.506 189L276.494 199ZM271.5 193V194H281.5V193H271.5ZM45.8109 304.635C60.5437 284.487 123.586 198 276.5 198L276.5 188C118.909 188 53.259 277.508 37.7387 298.733L45.8109 304.635ZM44.9924 305.753C45.2491 305.404 45.5229 305.029 45.8109 304.635L37.7387 298.733C37.4494 299.128 37.1818 299.494 36.9323 299.834L44.9924 305.753ZM5.00937 422.948C4.53397 377.205 22.2214 336.761 44.9924 305.753L36.9323 299.834C13.2255 332.116 -5.49337 374.625 -4.99009 423.052L5.00937 422.948Z" fill="#505050" mask="url(#path-1-inside-1_80_61)"/>
<mask id="path-3-inside-2_80_61" fill="white">
<path fill-rule="evenodd" clip-rule="evenodd" d="M462.38 423C456.313 384.463 445.241 347.051 433.219 319C413.719 273.5 365.719 174 293.219 168C179.474 168 127.501 273.525 114.739 299.437C114.15 300.634 113.644 301.661 113.219 302.5C97.4522 333.667 77.3827 373.44 67.8008 423H462.38Z"/>
</mask>
<g filter="url(#filter1_i_80_61)">
<path fill-rule="evenodd" clip-rule="evenodd" d="M462.38 423C456.313 384.463 445.241 347.051 433.219 319C413.719 273.5 365.719 174 293.219 168C179.474 168 127.501 273.525 114.739 299.437C114.15 300.634 113.644 301.661 113.219 302.5C97.4522 333.667 77.3827 373.44 67.8008 423H462.38Z" fill="#FEFEFE"/>
</g>
<path d="M462.38 423V428H468.229L467.319 422.222L462.38 423ZM293.219 168L293.632 163.017L293.426 163H293.219V168ZM114.739 299.437L110.254 297.228L110.254 297.228L114.739 299.437ZM113.219 302.5L108.758 300.243L108.758 300.243L113.219 302.5ZM67.8008 423L62.8917 422.051L61.7415 428H67.8008V423ZM428.624 320.97C440.473 348.618 451.435 385.628 457.441 423.778L467.319 422.222C461.191 383.298 450.009 345.483 437.815 317.03L428.624 320.97ZM292.807 172.983C326.863 175.801 355.841 200.704 379.095 231.689C402.228 262.513 418.916 298.319 428.624 320.97L437.815 317.03C428.022 294.181 410.96 257.487 387.093 225.686C363.347 194.046 332.076 166.199 293.632 163.017L292.807 172.983ZM119.225 301.646C125.574 288.755 141.473 256.507 169.695 227.487C197.855 198.531 238.069 173 293.219 173V163C234.624 163 191.979 190.231 162.526 220.516C133.135 250.737 116.666 284.207 110.254 297.228L119.225 301.646ZM117.681 304.757C118.12 303.889 118.639 302.835 119.225 301.646L110.254 297.228C109.66 298.433 109.167 299.433 108.758 300.243L117.681 304.757ZM72.7099 423.949C82.1451 375.148 101.909 335.934 117.681 304.757L108.758 300.243C92.9954 331.401 72.6204 371.732 62.8917 422.051L72.7099 423.949ZM67.8008 428H462.38V418H67.8008V428Z" fill="#505050" mask="url(#path-3-inside-2_80_61)"/>
<path fill-rule="evenodd" clip-rule="evenodd" d="M358.301 341.621C340.444 330.907 320.801 311.891 320.801 300.55C320.801 289.208 329.595 280.014 340.444 280.014C348.335 280.014 355.139 284.879 358.262 291.896C361.35 284.888 368.201 280.014 376.158 280.014C387.006 280.014 395.801 289.075 395.801 300.252C395.801 311.429 376.158 331.062 358.301 341.621Z" fill="#20AFFF"/>
<path d="M332.801 313.014C334.614 313.014 336.722 313.014 338.801 313.014C340.178 313.014 340.962 310.401 342.801 310.514C344.477 310.618 345.325 313.014 346.301 313.014C347.828 313.014 348.801 313.014 348.801 313.014L350.801 315.514L353.301 297.014L357.301 319.514L359.301 313.014H367.301C367.301 313.014 369.79 310.514 371.801 310.514C373.811 310.514 376.301 313.014 376.301 313.014H384.301" stroke="#FEFEFE" stroke-width="2" stroke-linecap="round"/>
<g filter="url(#filter2_i_80_61)">
<ellipse cx="275.952" cy="129.967" rx="161" ry="120" transform="rotate(-3.63521 275.952 129.967)" fill="#FEFEFE"/>
</g>
<path d="M434.133 119.917C436.172 152.019 420.579 182.387 393.329 205.525C366.078 228.663 327.287 244.442 283.401 247.23C239.516 250.018 199.04 239.275 169.08 219.772C139.121 200.269 119.81 172.118 117.77 140.016C115.731 107.914 131.324 77.546 158.574 54.4083C185.825 31.2705 224.616 15.4911 268.502 12.703C312.387 9.91486 352.863 20.6583 382.823 40.1615C412.782 59.6645 432.093 87.8147 434.133 119.917Z" stroke="#505050" stroke-width="5"/>
<path fill-rule="evenodd" clip-rule="evenodd" d="M227.278 126.579C226.047 137.18 217.381 145.712 206.354 146.412C193.952 147.2 183.26 137.786 182.472 125.384C181.685 112.983 191.099 102.291 203.501 101.503C215.902 100.715 226.594 110.13 227.382 122.531C227.425 123.216 227.438 123.896 227.42 124.57C228.158 124.535 229.095 124.49 230.2 124.438C233.122 124.298 237.218 124.098 241.913 123.861C251.304 123.386 263.088 122.76 272.67 122.151C282.252 121.542 294.909 120.616 305.173 119.842C310.304 119.455 314.836 119.106 318.085 118.854C319.71 118.728 321.014 118.626 321.912 118.556L322.408 118.517C322.307 117.857 322.234 117.187 322.191 116.508C321.403 104.106 330.818 93.4143 343.219 92.6264C355.62 91.8386 366.312 101.253 367.1 113.655C367.888 126.056 358.474 136.748 346.072 137.536C335.038 138.237 325.358 130.862 322.802 120.492L322.068 120.55C321.17 120.62 319.865 120.722 318.24 120.848C314.99 121.1 310.456 121.449 305.323 121.836C295.058 122.61 282.392 123.537 272.797 124.147C263.201 124.756 251.407 125.384 242.014 125.858C237.317 126.096 233.219 126.295 230.296 126.435C229.069 126.494 228.049 126.542 227.278 126.579Z" fill="#121010"/>
<path d="M190.099 176.199C190.044 181.169 185.97 185.154 180.999 185.098C176.029 185.043 172.045 180.969 172.1 175.999C172.155 171.029 177.177 169.055 181.266 161.1C185.177 169.144 190.154 171.229 190.099 176.199Z" fill="#20AFFF"/>
<defs>
<filter id="filter0_i_80_61" x="0" y="193" width="569" height="230" filterUnits="userSpaceOnUse" color-interpolation-filters="sRGB">
<feFlood flood-opacity="0" result="BackgroundImageFix"/>
<feBlend mode="normal" in="SourceGraphic" in2="BackgroundImageFix" result="shape"/>
<feColorMatrix in="SourceAlpha" type="matrix" values="0 0 0 0 0 0 0 0 0 0 0 0 0 0 0 0 0 0 127 0" result="hardAlpha"/>
<feOffset dx="23"/>
<feGaussianBlur stdDeviation="8.5"/>
<feComposite in2="hardAlpha" operator="arithmetic" k2="-1" k3="1"/>
<feColorMatrix type="matrix" values="0 0 0 0 0.313726 0 0 0 0 0.313726 0 0 0 0 0.313726 0 0 0 0.25 0"/>
<feBlend mode="normal" in2="shape" result="effect1_innerShadow_80_61"/>
</filter>
<filter id="filter1_i_80_61" x="67.8008" y="168" width="411.579" height="255" filterUnits="userSpaceOnUse" color-interpolation-filters="sRGB">
<feFlood flood-opacity="0" result="BackgroundImageFix"/>
<feBlend mode="normal" in="SourceGraphic" in2="BackgroundImageFix" result="shape"/>
<feColorMatrix in="SourceAlpha" type="matrix" values="0 0 0 0 0 0 0 0 0 0 0 0 0 0 0 0 0 0 127 0" result="hardAlpha"/>
<feOffset dx="23"/>
<feGaussianBlur stdDeviation="8.5"/>
<feComposite in2="hardAlpha" operator="arithmetic" k2="-1" k3="1"/>
<feColorMatrix type="matrix" values="0 0 0 0 0.313726 0 0 0 0 0.313726 0 0 0 0 0.313726 0 0 0 0.25 0"/>
<feBlend mode="normal" in2="shape" result="effect1_innerShadow_80_61"/>
</filter>
<filter id="filter2_i_80_61" x="115.092" y="9.76685" width="338.719" height="240.399" filterUnits="userSpaceOnUse" color-interpolation-filters="sRGB">
<feFlood flood-opacity="0" result="BackgroundImageFix"/>
<feBlend mode="normal" in="SourceGraphic" in2="BackgroundImageFix" result="shape"/>
<feColorMatrix in="SourceAlpha" type="matrix" values="0 0 0 0 0 0 0 0 0 0 0 0 0 0 0 0 0 0 127 0" result="hardAlpha"/>
<feOffset dx="23"/>
<feGaussianBlur stdDeviation="8.5"/>
<feComposite in2="hardAlpha" operator="arithmetic" k2="-1" k3="1"/>
<feColorMatrix type="matrix" values="0 0 0 0 0.313726 0 0 0 0 0.313726 0 0 0 0 0.313726 0 0 0 0.25 0"/>
<feBlend mode="normal" in2="shape" result="effect1_innerShadow_80_61"/>
</filter>
</defs>
</svg>
