<svg width="589" height="596" viewBox="0 0 589 596" fill="none" xmlns="http://www.w3.org/2000/svg">
<mask id="path-1-inside-1_32_257" fill="white">
<path fill-rule="evenodd" clip-rule="evenodd" d="M314 487V490.931H266.583C156.872 490.931 153.883 508.698 150.894 526.465C147.906 544.233 144.917 562 35.2052 562C10.8246 489.612 45.4541 353.977 77.9616 308.94C78.2152 308.589 78.4865 308.212 78.7758 307.809C93.9344 286.718 158.418 197 314 197V198.001C468.592 198.377 532.203 285.807 547.245 306.48C547.526 306.867 547.79 307.23 548.038 307.569C580.476 351.972 603.103 415.63 578.774 487H359.816H314Z"/>
</mask>
<g filter="url(#filter0_i_32_257)">
<path fill-rule="evenodd" clip-rule="evenodd" d="M314 487V490.931H266.583C156.872 490.931 153.883 508.698 150.894 526.465C147.906 544.233 144.917 562 35.2052 562C10.8246 489.612 45.4541 353.977 77.9616 308.94C78.2152 308.589 78.4865 308.212 78.7758 307.809C93.9344 286.718 158.418 197 314 197V198.001C468.592 198.377 532.203 285.807 547.245 306.48C547.526 306.867 547.79 307.23 548.038 307.569C580.476 351.972 603.103 415.63 578.774 487H359.816H314Z" fill="#FEFEFE"/>
</g>
<path d="M314 487V482H309V487H314ZM314 490.931V495.931H319V490.931H314ZM35.2052 562L30.4667 563.596L31.6132 567H35.2052V562ZM77.9616 308.94L73.9074 306.014L73.9074 306.014L77.9616 308.94ZM78.7758 307.809L82.8359 310.727L82.8359 310.727L78.7758 307.809ZM314 197H319V192L314 192L314 197ZM314 198.001H309V202.989L313.988 203.001L314 198.001ZM547.245 306.48L543.202 309.422L543.202 309.422L547.245 306.48ZM548.038 307.569L544 310.518L544 310.518L548.038 307.569ZM578.774 487V492H582.352L583.506 488.613L578.774 487ZM309 487V490.931H319V487H309ZM314 485.931H266.583V495.931H314V485.931ZM266.583 485.931C211.747 485.931 182.584 490.327 166.669 497.474C158.498 501.144 153.519 505.665 150.478 510.909C147.54 515.976 146.691 521.312 145.964 525.636L155.825 527.295C156.592 522.736 157.237 519.188 159.129 515.926C160.917 512.841 164.102 509.589 170.766 506.597C184.521 500.419 211.708 495.931 266.583 495.931V485.931ZM145.964 525.636C145.197 530.195 144.551 533.743 142.66 537.005C140.871 540.089 137.686 543.341 131.022 546.334C117.267 552.512 90.0805 557 35.2052 557V567C90.0416 567 119.205 562.604 135.119 555.457C143.29 551.787 148.27 547.266 151.311 542.021C154.249 536.955 155.098 531.619 155.825 527.295L145.964 525.636ZM39.9436 560.404C28.1788 525.473 30.5312 474.523 40.1541 426.19C49.7745 377.868 66.3818 333.526 82.0158 311.867L73.9074 306.014C57.0339 329.391 40.0728 375.384 30.3466 424.237C20.623 473.077 17.851 526.139 30.4667 563.596L39.9436 560.404ZM82.0157 311.867C82.2729 311.511 82.5473 311.129 82.8359 310.727L74.7156 304.891C74.4257 305.294 74.1575 305.668 73.9074 306.014L82.0157 311.867ZM82.8359 310.727C97.6178 290.161 160.795 202 314 202L314 192C156.04 192 90.251 283.276 74.7156 304.891L82.8359 310.727ZM309 197V198.001H319V197H309ZM551.288 303.539C535.85 282.32 470.938 193.383 314.012 193.001L313.988 203.001C466.246 203.371 528.557 289.294 543.202 309.422L551.288 303.539ZM552.075 304.619C551.831 304.285 551.57 303.926 551.288 303.539L543.202 309.422C543.482 309.807 543.749 310.175 544 310.518L552.075 304.619ZM583.506 488.613C608.509 415.267 585.17 349.921 552.075 304.619L544 310.518C575.782 354.022 597.697 415.992 574.041 485.387L583.506 488.613ZM359.816 492H578.774V482H359.816V492ZM314 492H359.816V482H314V492Z" fill="#505050" mask="url(#path-1-inside-1_32_257)"/>
<g filter="url(#filter1_i_32_257)">
<path d="M471.155 320.228C493.635 380.122 554.5 485.5 541.5 596C339.175 596 492.635 596 290.31 596C87.9841 596 280.826 588 78.5 588C78.5 521.211 124.656 324.537 146.137 287.911C155.741 271.537 207.085 172 325.982 172C398.419 177.171 455.921 279.641 471.155 320.228Z" fill="#FEFEFE"/>
</g>
<path d="M148.294 289.175C148.72 288.448 149.226 287.563 149.814 286.535C162.57 264.212 213.808 174.548 325.892 174.5C360.998 177.046 392.871 203.228 418.076 234.405C443.227 265.516 461.283 301.042 468.814 321.106C473.245 332.912 479.162 346.481 485.677 361.422C487.467 365.526 489.302 369.735 491.164 374.039C499.821 394.051 509.1 416.221 517.269 439.95C533.392 486.787 545.135 539.547 539.267 593.5H539.145H537.98H536.823H535.674H534.532H533.399H532.274H531.156H530.047H528.945H527.851H526.765H525.687H524.616H523.553H522.497H521.449H520.409H519.376H518.351H517.333H516.323H515.32H514.324H513.336H512.355H511.382H510.415H509.456H508.504H507.56H506.622H505.691H504.768H503.852H502.942H502.04H501.144H500.255H499.374H498.499H497.631H496.769H495.915H495.067H494.225H493.391H492.563H491.741H490.927H490.118H489.317H488.521H487.732H486.95H486.174H485.404H484.64H483.883H483.132H482.387H481.648H480.916H480.189H479.469H478.755H478.046H477.344H476.648H475.957H475.273H474.594H473.921H473.254H472.593H471.937H471.287H470.643H470.004H469.371H468.744H468.122H467.505H466.894H466.289H465.689H465.094H464.505H463.921H463.342H462.768H462.2H461.637H461.079H460.526H459.978H459.435H458.898H458.365H457.837H457.314H456.796H456.283H455.775H455.272H454.773H454.279H453.79H453.306H452.826H452.35H451.88H451.414H450.952H450.495H450.042H449.594H449.15H448.711H448.275H447.845H447.418H446.996H446.577H446.163H445.753H445.348H444.946H444.548H444.155H443.765H443.379H442.997H442.619H442.245H441.875H441.508H441.146H440.787H440.431H440.08H439.732H439.387H439.046H438.709H438.375H438.045H437.718H437.394H437.074H436.757H436.444H436.133H435.826H435.522H435.222H434.924H434.63H434.339H434.051H433.765H433.483H433.204H432.928H432.654H432.384H432.116H431.851H431.589H431.329H431.073H430.819H430.567H430.318H430.072H429.828H429.587H429.349H429.112H428.878H428.647H428.418H428.191H427.967H427.745H427.525H427.307H427.091H426.878H426.666H426.457H426.25H426.044H425.841H425.64H425.44H425.243H425.047H424.853H424.661H424.47H424.282H424.095H423.909H423.726H423.543H423.363H423.184H423.006H422.83H422.656H422.482H422.31H422.14H421.971H421.803H421.636H421.47H421.306H421.143H420.981H420.82H420.66H420.501H420.343H420.186H420.03H419.875H419.72H419.567H419.414H419.262H419.111H418.96H418.81H418.661H418.513H418.365H418.217H418.07H417.924H417.778H417.632H417.487H417.342H417.197H417.053H416.909H416.765H416.621H416.478H416.334H416.191H416.048H415.905H415.762H415.618H415.475H415.332H415.188H415.045H414.901H414.757H414.613H414.468H414.323H414.178H414.032H413.886H413.74H413.593H413.445H413.297H413.148H412.999H412.849H412.699H412.548H412.396H412.243H412.09H411.935H411.78H411.624H411.467H411.309H411.15H410.99H410.829H410.667H410.504H410.339H410.174H410.007H409.839H409.67H409.499H409.327H409.154H408.98H408.803H408.626H408.447H408.266H408.084H407.9H407.715H407.528H407.339H407.149H406.957H406.763H406.567H406.37H406.17H405.969H405.765H405.56H405.353H405.143H404.932H404.719H404.503H404.285H404.065H403.843H403.619H403.392H403.163H402.931H402.697H402.461H402.222H401.981H401.738H401.491H401.243H400.991H400.737H400.48H400.221H399.959H399.694H399.426H399.156H398.882H398.606H398.327H398.044H397.759H397.471H397.18H396.885H396.588H396.287H395.983H395.676H395.366H395.053H394.736H394.416H394.092H393.765H393.435H393.101H392.763H392.423H392.078H391.73H391.378H391.023H390.664H390.301H389.935H389.564H389.19H388.812H388.431H388.045H387.655H387.261H386.864H386.462H386.056H385.646H385.232H384.814H384.392H383.965H383.534H383.099H382.66H382.216H381.768H381.315H380.858H380.396H379.93H379.459H378.984H378.504H378.02H377.53H377.037H376.538H376.035H375.526H375.013H374.495H373.973H373.445H372.912H372.374H371.832H371.284H370.731H370.173H369.61H369.042H368.468H367.889H367.305H366.716H366.121H365.521H364.915H364.304H363.688H363.066H362.439H361.806H361.167H360.523H359.873H359.217H358.556H357.889H357.216H356.537H355.852H355.162H354.466H353.763H353.055H352.341H351.62H350.894H350.161H349.423H348.678H347.927H347.17H346.406H345.636H344.86H344.077H343.289H342.493H341.691H340.883H340.068H339.247H338.419H337.584H336.743H335.895H335.041H334.179H333.311H332.436H331.554H330.666H329.77H328.868H327.958H327.042H326.118H325.188H324.25H323.305H322.353H321.394H320.428H319.454H318.473H317.485H316.49H315.487H314.476H313.459H312.433H311.401H310.36H309.313H308.257H307.194H306.123H305.045H303.959H302.865H301.763H300.653H299.536H298.411H297.277H296.136H294.987H293.83H292.664H291.491H290.31C239.723 593.5 213.905 592.999 200.449 592.254C193.695 591.88 190.188 591.449 188.263 591.027C187.319 590.82 186.853 590.635 186.61 590.513C186.4 590.407 186.292 590.321 186.017 590.089L185.998 590.073C185.68 589.805 185.199 589.399 184.446 589.02C183.71 588.65 182.812 588.351 181.619 588.089C179.271 587.574 175.418 587.13 168.638 586.754C155.253 586.012 129.942 585.517 81.0207 585.5C81.5661 551.698 92.822 487.787 106.7 427.203C113.803 396.193 121.573 366.142 128.902 341.574C136.261 316.905 143.099 298.032 148.294 289.175Z" stroke="#505050" stroke-width="5"/>
<path fill-rule="evenodd" clip-rule="evenodd" d="M395.503 350.607C377.646 339.893 358.003 320.877 358.003 309.536C358.003 298.194 366.797 289 377.646 289C385.537 289 392.341 293.865 395.464 300.882C398.552 293.874 405.404 289 413.36 289C424.208 289 433.003 298.061 433.003 309.238C433.003 320.415 413.36 340.048 395.503 350.607Z" fill="#B5B5B5"/>
<path fill-rule="evenodd" clip-rule="evenodd" d="M395.503 350.607C377.646 339.893 358.003 320.877 358.003 309.536C358.003 298.194 366.797 289 377.646 289C385.537 289 392.341 293.865 395.464 300.882C398.552 293.874 405.404 289 413.36 289C424.208 289 433.003 298.061 433.003 309.238C433.003 320.415 413.36 340.048 395.503 350.607Z" fill="#B5B5B5"/>
<path d="M370.003 322C371.816 322 373.924 322 376.003 322C377.38 322 378.164 319.387 380.003 319.5C381.679 319.603 382.527 322 383.503 322C385.03 322 386.003 322 386.003 322L388.003 324.5L390.503 306L394.503 328.5L396.503 322H404.503C404.503 322 406.993 319.5 409.003 319.5C411.013 319.5 413.503 322 413.503 322H421.503" stroke="#FEFEFE" stroke-width="2" stroke-linecap="round"/>
<path d="M335.489 553.88L335.488 553.88L335.488 553.88L335.488 553.879L335.485 553.867L335.481 553.854L335.003 554C335.481 553.854 335.481 553.854 335.481 553.853L335.48 553.851L335.478 553.842L335.467 553.808L335.425 553.669C335.388 553.546 335.333 553.363 335.26 553.122C335.116 552.64 334.905 551.928 334.635 551.006C334.096 549.161 333.325 546.478 332.399 543.126C330.547 536.421 328.075 527.038 325.594 516.328C320.63 494.898 315.641 468.193 315.503 446.997C315.36 425.035 320.349 397.331 325.383 375.093C327.899 363.98 330.424 354.241 332.32 347.281C333.268 343.801 334.059 341.016 334.612 339.102C334.889 338.145 335.106 337.405 335.255 336.905C335.302 336.745 335.342 336.61 335.375 336.5H339.332C339.32 336.539 339.308 336.579 339.296 336.621C339.147 337.123 338.929 337.865 338.652 338.824C338.097 340.743 337.305 343.533 336.355 347.018C334.456 353.989 331.928 363.742 329.408 374.873C324.37 397.123 319.359 424.92 319.503 447.003C319.642 468.315 324.528 494.734 329.37 515.803C331.792 526.342 334.205 535.551 336.013 542.126C336.917 545.413 337.67 548.043 338.196 549.85C338.46 550.754 338.667 551.453 338.808 551.925C338.878 552.162 338.933 552.342 338.969 552.463L339.011 552.599L339.018 552.625L339.022 552.644C339.027 552.67 339.035 552.709 339.044 552.76C339.062 552.862 339.086 553.009 339.108 553.186C339.151 553.543 339.184 554.007 339.149 554.462C339.114 554.926 339.011 555.325 338.829 555.596C338.669 555.834 338.431 556 338.003 556C337.016 556 336.401 555.494 336.013 554.957C335.817 554.686 335.684 554.411 335.6 554.203C335.558 554.1 335.529 554.015 335.511 553.958C335.502 553.929 335.496 553.908 335.492 553.895L335.489 553.881L335.489 553.881L335.489 553.88Z" fill="#62B13F" stroke="#1F6600"/>
<path d="M582 458.75C582 495.258 548.5 532.5 500.927 535C468.337 535 406 503.24 406 472.614C406 441.987 486.297 413 518.886 413C551.476 413 582 428.123 582 458.75Z" fill="#FEFEFE"/>
<path d="M320.548 408.714C325.552 419.291 328.642 429.508 329.125 437.701C329.611 445.918 327.476 451.911 322.27 454.374C319.454 455.706 317.057 457.726 314.918 459.628C314.645 459.871 314.376 460.112 314.111 460.349C312.281 461.989 310.655 463.446 309.059 464.289C308.158 464.764 307.3 465.025 306.451 465.02C305.609 465.015 304.734 464.748 303.796 464.097C301.891 462.776 299.764 459.904 297.261 454.612C292.25 444.021 288.898 435.592 287.142 424.468C285.424 413.586 285.229 400.104 286.537 379.483C291.28 386.193 296.658 388.698 301.938 391.156C302.49 391.414 303.042 391.67 303.591 391.932C306.643 393.382 309.636 394.961 312.488 397.478C315.336 399.993 318.064 403.463 320.548 408.714Z" fill="#62B13F" stroke="#1F6600"/>
<path d="M313.092 434.789C313.251 435.014 313.563 435.068 313.789 434.908C314.014 434.749 314.068 434.437 313.908 434.211L313.092 434.789ZM299.5 411.5L299.056 411.73L299.056 411.73L299.5 411.5ZM286.5 380C286.028 380.165 286.028 380.165 286.028 380.165C286.028 380.165 286.028 380.166 286.028 380.166C286.029 380.166 286.029 380.167 286.029 380.169C286.03 380.171 286.031 380.175 286.033 380.18C286.036 380.189 286.041 380.203 286.048 380.222C286.061 380.26 286.081 380.316 286.107 380.39C286.159 380.538 286.236 380.756 286.336 381.037C286.537 381.599 286.83 382.415 287.2 383.432C287.941 385.464 288.994 388.297 290.237 391.5C292.723 397.902 295.981 405.797 299.056 411.73L299.944 411.27C296.895 405.388 293.653 397.533 291.169 391.138C289.929 387.943 288.879 385.117 288.14 383.089C287.77 382.075 287.478 381.261 287.278 380.701C287.179 380.421 287.102 380.204 287.05 380.058C287.024 379.984 287.005 379.929 286.992 379.891C286.985 379.873 286.98 379.858 286.977 379.849C286.975 379.844 286.974 379.841 286.973 379.839C286.973 379.837 286.973 379.837 286.972 379.836C286.972 379.836 286.972 379.835 286.972 379.835C286.972 379.835 286.972 379.835 286.5 380ZM299.056 411.73C303.906 421.086 307.009 426.184 313.092 434.789L313.908 434.211C307.852 425.644 304.772 420.585 299.944 411.27L299.056 411.73Z" fill="#1F6600"/>
<g filter="url(#filter2_i_32_257)">
<ellipse cx="22.5761" cy="36.5766" rx="22.5761" ry="36.5766" transform="matrix(1 0 -0.0463906 -0.998923 311.039 358.075)" fill="#FFC94E"/>
</g>
<g filter="url(#filter3_i_32_257)">
<ellipse cx="22.519" cy="36.6528" rx="22.519" ry="36.6528" transform="matrix(0.906462 0.422287 0.389993 -0.920818 312.585 352.501)" fill="#FF5959"/>
</g>
<g filter="url(#filter4_i_32_257)">
<ellipse cx="22.5221" cy="36.6841" rx="22.5221" ry="36.6841" transform="matrix(0.911722 -0.410808 -0.461882 -0.886941 311.888 371.014)" fill="#FF9E59"/>
</g>
<path d="M301 409L323 403.5H348V514H301L292 449L300 442L290.5 434.5V415.5L301 409Z" fill="#FEFEFE"/>
<path d="M302.583 442.31C288.234 437.739 287.216 426.942 289.631 416.621C292.704 403.496 344.897 404.171 344.897 404.171C419.5 389 435.999 405.121 487 416.621C504.141 420.487 500 416.621 529 416.621M302.583 442.31C319.78 441.832 344.897 439.42 344.897 439.42M302.583 442.31C292.498 449.402 282.168 450.426 282.168 460.671C282.168 470.917 295.242 475.17 295.242 475.17L311.867 477.418M332.619 475.17L311.867 477.418M311.867 477.418C311.867 477.418 295.615 483.754 295.242 493.388C294.869 503.023 300.146 509.233 310.494 511.986C326.94 516.363 336.808 508.754 353.802 514.853C400.668 531.671 422.497 526.816 439.499 530.5C470.819 537.285 493.499 534.671 505.999 534.671C518.499 534.671 575.5 528 584.5 452" stroke="#505050" stroke-width="5" stroke-linecap="round" stroke-linejoin="round"/>
<g filter="url(#filter5_i_32_257)">
<ellipse cx="313.153" cy="133.726" rx="161" ry="120" transform="rotate(5.05749 313.153 133.726)" fill="#FEFEFE"/>
</g>
<path d="M471.036 147.698C468.2 179.74 448.196 207.402 417.762 226.156C387.328 244.909 346.597 254.645 302.795 250.768C258.992 246.892 220.604 230.154 193.937 206.347C167.269 182.54 152.434 151.795 155.27 119.753C158.106 87.7114 178.11 60.0492 208.544 41.2958C238.978 22.5422 279.708 12.8067 323.511 16.6833C367.314 20.5598 405.701 37.2972 432.369 61.1043C459.037 84.9112 473.872 115.657 471.036 147.698Z" stroke="#505050" stroke-width="5"/>
<path fill-rule="evenodd" clip-rule="evenodd" d="M265.474 123.295C262.556 133.44 252.778 140.43 241.869 139.464C229.491 138.369 220.345 127.446 221.44 115.068C222.536 102.69 233.458 93.544 245.836 94.6395C258.214 95.735 267.361 106.657 266.265 119.035C266.196 119.82 266.087 120.592 265.94 121.349C283.39 126.139 294.01 128.016 312.509 129.653C331.346 131.32 342.184 131.308 360.807 129.565C360.802 128.853 360.831 128.134 360.895 127.41C361.991 115.032 372.913 105.886 385.291 106.981C397.669 108.077 406.816 118.999 405.72 131.377C404.625 143.755 393.702 152.901 381.324 151.806C370.354 150.835 361.922 142.145 360.909 131.564C342.216 133.31 331.262 133.321 312.333 131.646C293.736 130 283.003 128.104 265.474 123.295Z" fill="#121010"/>
<path d="M218.708 145.948C218.677 151.968 211.492 153.842 203.515 153.136C195.538 152.43 189.16 150.862 189.821 143.391C190.526 135.422 197.037 135.497 205.014 136.203C212.991 136.909 219.122 141.272 218.708 145.948Z" fill="#FF5959"/>
<path d="M403.013 162.259C401.986 168.191 408.724 171.297 416.694 172.003C424.664 172.708 431.214 172.284 431.875 164.813C432.58 156.844 426.163 155.774 418.193 155.069C410.223 154.363 403.427 157.582 403.013 162.259Z" fill="#FF5959"/>
<path d="M101.785 132.079C105.553 138.415 104.652 150.735 104.652 150.735C104.652 150.735 109.744 139.48 116.079 135.712C122.415 131.945 134.735 132.845 134.735 132.845C134.735 132.845 123.48 127.753 119.712 121.418C115.945 115.083 116.845 102.763 116.845 102.763C116.845 102.763 111.754 114.017 105.418 117.785C99.0829 121.553 86.7627 120.652 86.7627 120.652C86.7627 120.652 98.0176 125.744 101.785 132.079Z" fill="#FF6095"/>
<path d="M63.5484 103.201C67.3127 106.965 68.8744 115.749 68.8744 115.749C68.8744 115.749 70.4361 106.965 74.2004 103.201C77.9647 99.4362 86.7488 97.8745 86.7488 97.8745C86.7488 97.8745 77.9647 96.3128 74.2004 92.5485C70.4361 88.7841 68.8744 80.0001 68.8744 80.0001C68.8744 80.0001 67.3127 88.7842 63.5484 92.5485C59.784 96.3128 51 97.8745 51 97.8745C51 97.8745 59.784 99.4362 63.5484 103.201Z" fill="#FF9E59"/>
<path d="M34.4547 165.049C44.2176 170.549 52.3574 187.472 52.3574 187.472C52.3574 187.472 50.5495 168.78 56.0493 159.018C61.549 149.255 78.4723 141.115 78.4723 141.115C78.4723 141.115 59.7805 142.923 50.0176 137.423C40.2548 131.923 32.1149 115 32.1149 115C32.1149 115 33.9229 133.692 28.4231 143.455C22.9233 153.218 6 161.357 6 161.357C6 161.357 24.6919 159.549 34.4547 165.049Z" fill="#20AFFF"/>
<path d="M125.045 183.383C138.358 185.7 138.933 227.613 138.933 227.613C142.647 218.051 147.651 210.284 160.422 212.498C182.64 216.349 168.258 250.61 173.064 258.035C185.56 277.341 173.294 299.447 170.649 308.324C154.632 362.067 226.488 589.262 194.486 589.44C192.421 589.451 158.257 592.962 130.986 589.442C113.071 587.129 180.173 595.015 83.4863 582.531C-13.2002 570.046 -4.71333 528.885 16.9613 425.927C50.1539 268.256 38.7269 327.838 32.6399 274.812C30.4033 255.328 29.1979 245.793 32.3774 227.617C34.3782 216.179 40.1915 209.976 49.8279 209.635C59.4643 209.294 66.9549 226.431 66.9549 226.431C66.9549 226.431 66.8383 205.453 68.3685 202.08C69.4981 199.59 70.3789 192.373 80.1687 189.097C88.1781 186.418 92.5564 189.028 100.357 199.418C103.882 183.501 114.578 181.561 125.045 183.383Z" fill="#FEFEFE"/>
<path d="M138.933 227.613C138.933 227.613 138.358 185.7 125.045 183.383C114.578 181.561 103.882 183.501 100.357 199.418M100.357 199.418C102.073 218.034 106.289 245.091 106.289 245.091M100.357 199.418C92.5564 189.028 88.1781 186.418 80.1687 189.097C70.3789 192.373 69.4981 199.59 68.3685 202.08C66.8383 205.453 66.9549 226.431 66.9549 226.431M70.6925 248.766L66.9549 226.431M66.9549 226.431C66.9549 226.431 59.4643 209.294 49.8279 209.635C40.1915 209.976 34.3782 216.179 32.3774 227.617C29.1979 245.793 30.4033 255.328 32.6399 274.812C38.7269 327.838 50.1539 268.256 16.9613 425.927C-4.71333 528.885 -13.2002 570.046 83.4863 582.531C180.173 595.015 113.071 587.129 130.986 589.442C158.257 592.962 192.421 589.451 194.486 589.44C226.488 589.262 154.632 362.067 170.649 308.324C173.294 299.447 185.56 277.341 173.064 258.035C168.258 250.61 182.64 216.349 160.422 212.498C135.024 208.095 140.347 243.164 125.434 253.332C104.265 267.766 94.4838 293.077 109.224 308.665C127.916 328.433 153.243 313.787 153.243 313.787" stroke="#505050" stroke-width="5" stroke-linecap="round" stroke-linejoin="round"/>
<defs>
<filter id="filter0_i_32_257" x="27" y="197" width="579" height="365" filterUnits="userSpaceOnUse" color-interpolation-filters="sRGB">
<feFlood flood-opacity="0" result="BackgroundImageFix"/>
<feBlend mode="normal" in="SourceGraphic" in2="BackgroundImageFix" result="shape"/>
<feColorMatrix in="SourceAlpha" type="matrix" values="0 0 0 0 0 0 0 0 0 0 0 0 0 0 0 0 0 0 127 0" result="hardAlpha"/>
<feOffset dx="23"/>
<feGaussianBlur stdDeviation="8.5"/>
<feComposite in2="hardAlpha" operator="arithmetic" k2="-1" k3="1"/>
<feColorMatrix type="matrix" values="0 0 0 0 0.313726 0 0 0 0 0.313726 0 0 0 0 0.313726 0 0 0 0.25 0"/>
<feBlend mode="normal" in2="shape" result="effect1_innerShadow_32_257"/>
</filter>
<filter id="filter1_i_32_257" x="78.5" y="172" width="481.802" height="424" filterUnits="userSpaceOnUse" color-interpolation-filters="sRGB">
<feFlood flood-opacity="0" result="BackgroundImageFix"/>
<feBlend mode="normal" in="SourceGraphic" in2="BackgroundImageFix" result="shape"/>
<feColorMatrix in="SourceAlpha" type="matrix" values="0 0 0 0 0 0 0 0 0 0 0 0 0 0 0 0 0 0 127 0" result="hardAlpha"/>
<feOffset dx="23"/>
<feGaussianBlur stdDeviation="8.5"/>
<feComposite in2="hardAlpha" operator="arithmetic" k2="-1" k3="1"/>
<feColorMatrix type="matrix" values="0 0 0 0 0.313726 0 0 0 0 0.313726 0 0 0 0 0.313726 0 0 0 0.25 0"/>
<feBlend mode="normal" in2="shape" result="effect1_innerShadow_32_257"/>
</filter>
<filter id="filter2_i_32_257" x="309.277" y="285" width="45.2822" height="73.0745" filterUnits="userSpaceOnUse" color-interpolation-filters="sRGB">
<feFlood flood-opacity="0" result="BackgroundImageFix"/>
<feBlend mode="normal" in="SourceGraphic" in2="BackgroundImageFix" result="shape"/>
<feColorMatrix in="SourceAlpha" type="matrix" values="0 0 0 0 0 0 0 0 0 0 0 0 0 0 0 0 0 0 127 0" result="hardAlpha"/>
<feOffset dx="2" dy="-2"/>
<feComposite in2="hardAlpha" operator="arithmetic" k2="-1" k3="1"/>
<feColorMatrix type="matrix" values="0 0 0 0 0 0 0 0 0 0 0 0 0 0 0 0 0 0 0.25 0"/>
<feBlend mode="normal" in2="shape" result="effect1_innerShadow_32_257"/>
</filter>
<filter id="filter3_i_32_257" x="322.37" y="293.187" width="49.8438" height="70.1472" filterUnits="userSpaceOnUse" color-interpolation-filters="sRGB">
<feFlood flood-opacity="0" result="BackgroundImageFix"/>
<feBlend mode="normal" in="SourceGraphic" in2="BackgroundImageFix" result="shape"/>
<feColorMatrix in="SourceAlpha" type="matrix" values="0 0 0 0 0 0 0 0 0 0 0 0 0 0 0 0 0 0 127 0" result="hardAlpha"/>
<feOffset dx="2" dy="-2"/>
<feComposite in2="hardAlpha" operator="arithmetic" k2="-1" k3="1"/>
<feColorMatrix type="matrix" values="0 0 0 0 0 0 0 0 0 0 0 0 0 0 0 0 0 0 0.25 0"/>
<feBlend mode="normal" in2="shape" result="effect1_innerShadow_32_257"/>
</filter>
<filter id="filter4_i_32_257" x="288.855" y="295.39" width="53.2451" height="67.6704" filterUnits="userSpaceOnUse" color-interpolation-filters="sRGB">
<feFlood flood-opacity="0" result="BackgroundImageFix"/>
<feBlend mode="normal" in="SourceGraphic" in2="BackgroundImageFix" result="shape"/>
<feColorMatrix in="SourceAlpha" type="matrix" values="0 0 0 0 0 0 0 0 0 0 0 0 0 0 0 0 0 0 127 0" result="hardAlpha"/>
<feOffset dx="2" dy="-2"/>
<feComposite in2="hardAlpha" operator="arithmetic" k2="-1" k3="1"/>
<feColorMatrix type="matrix" values="0 0 0 0 0 0 0 0 0 0 0 0 0 0 0 0 0 0 0.25 0"/>
<feBlend mode="normal" in2="shape" result="effect1_innerShadow_32_257"/>
</filter>
<filter id="filter5_i_32_257" x="152.425" y="13.3416" width="338.456" height="240.769" filterUnits="userSpaceOnUse" color-interpolation-filters="sRGB">
<feFlood flood-opacity="0" result="BackgroundImageFix"/>
<feBlend mode="normal" in="SourceGraphic" in2="BackgroundImageFix" result="shape"/>
<feColorMatrix in="SourceAlpha" type="matrix" values="0 0 0 0 0 0 0 0 0 0 0 0 0 0 0 0 0 0 127 0" result="hardAlpha"/>
<feOffset dx="23"/>
<feGaussianBlur stdDeviation="8.5"/>
<feComposite in2="hardAlpha" operator="arithmetic" k2="-1" k3="1"/>
<feColorMatrix type="matrix" values="0 0 0 0 0.313726 0 0 0 0 0.313726 0 0 0 0 0.313726 0 0 0 0.25 0"/>
<feBlend mode="normal" in2="shape" result="effect1_innerShadow_32_257"/>
</filter>
</defs>
</svg>
