<svg width="587" height="428" viewBox="0 0 587 428" fill="none" xmlns="http://www.w3.org/2000/svg">
<mask id="path-1-inside-1_80_92" fill="white">
<path fill-rule="evenodd" clip-rule="evenodd" d="M35.1326 428H586.861C588.809 378.854 570.13 335.559 546.039 302.81C545.791 302.474 545.527 302.113 545.246 301.73C530.188 281.177 466.456 194.187 311.501 194V193C156.249 193 91.9023 280.998 76.7758 301.684L76.7754 301.685C76.4869 302.079 76.2163 302.449 75.9633 302.794C51.9053 335.554 33.2443 378.851 35.1326 428Z"/>
</mask>
<g filter="url(#filter0_i_80_92)">
<path fill-rule="evenodd" clip-rule="evenodd" d="M35.1326 428H586.861C588.809 378.854 570.13 335.559 546.039 302.81C545.791 302.474 545.527 302.113 545.246 301.73C530.188 281.177 466.456 194.187 311.501 194V193C156.249 193 91.9023 280.998 76.7758 301.684L76.7754 301.685C76.4869 302.079 76.2163 302.449 75.9633 302.794C51.9053 335.554 33.2443 378.851 35.1326 428Z" fill="#FEFEFE"/>
</g>
<path d="M35.1326 428L30.1363 428.192L30.3211 433H35.1326V428ZM586.861 428V433H591.667L591.858 428.198L586.861 428ZM546.039 302.81L550.066 299.848L550.066 299.847L546.039 302.81ZM545.246 301.73L541.212 304.685L541.212 304.685L545.246 301.73ZM311.501 194H306.501V198.994L311.495 199L311.501 194ZM311.501 193H316.501V188L311.501 188L311.501 193ZM76.7758 301.684L72.7397 298.733L72.7263 298.751L72.7131 298.77L76.7758 301.684ZM76.7754 301.685L80.8114 304.636L80.8249 304.618L80.8381 304.599L76.7754 301.685ZM75.9633 302.794L71.9333 299.834L71.9333 299.834L75.9633 302.794ZM35.1326 433H586.861V423H35.1326V433ZM542.011 305.773C565.617 337.863 583.757 380.068 581.865 427.802L591.858 428.198C593.861 377.639 574.642 333.255 550.066 299.848L542.011 305.773ZM541.212 304.685C541.493 305.067 541.76 305.432 542.011 305.773L550.066 299.847C549.822 299.516 549.561 299.159 549.279 298.774L541.212 304.685ZM311.495 199C464.129 199.184 526.559 284.684 541.212 304.685L549.279 298.775C533.817 277.67 468.783 189.19 311.507 189L311.495 199ZM306.501 193V194H316.501V193H306.501ZM80.8119 304.635C95.5447 284.487 158.587 198 311.501 198L311.501 188C153.91 188 88.26 277.508 72.7397 298.733L80.8119 304.635ZM80.8381 304.599L80.8385 304.599L72.7131 298.77L72.7127 298.77L80.8381 304.599ZM79.9934 305.753C80.2499 305.404 80.5237 305.03 80.8114 304.636L72.7394 298.733C72.4501 299.129 72.1827 299.495 71.9333 299.834L79.9934 305.753ZM40.1289 427.808C38.2946 380.067 56.4189 337.855 79.9934 305.753L71.9333 299.834C47.3917 333.253 28.1939 377.636 30.1363 428.192L40.1289 427.808Z" fill="#505050" mask="url(#path-1-inside-1_80_92)"/>
<mask id="path-3-inside-2_80_92" fill="white">
<path fill-rule="evenodd" clip-rule="evenodd" d="M493.92 428C488.05 387.713 476.542 348.262 464.001 319C444.501 273.5 396.501 174 324.001 168C210.256 168 158.283 273.525 145.521 299.437C144.932 300.634 144.426 301.661 144.001 302.5C127.708 334.709 106.819 376.107 97.6582 428H493.92Z"/>
</mask>
<g filter="url(#filter1_i_80_92)">
<path fill-rule="evenodd" clip-rule="evenodd" d="M493.92 428C488.05 387.713 476.542 348.262 464.001 319C444.501 273.5 396.501 174 324.001 168C210.256 168 158.283 273.525 145.521 299.437C144.932 300.634 144.426 301.661 144.001 302.5C127.708 334.709 106.819 376.107 97.6582 428H493.92Z" fill="#FEFEFE"/>
</g>
<path d="M464.001 319L459.406 320.97L459.406 320.97L464.001 319ZM493.92 428V433H499.701L498.867 427.279L493.92 428ZM324.001 168L324.414 163.017L324.208 163H324.001V168ZM145.521 299.437L141.036 297.228L141.036 297.228L145.521 299.437ZM144.001 302.5L139.54 300.243L139.54 300.243L144.001 302.5ZM97.6582 428L92.7343 427.131L91.6982 433H97.6582V428ZM459.406 320.97C471.769 349.817 483.162 388.846 488.972 428.721L498.867 427.279C492.938 386.58 481.316 346.708 468.597 317.031L459.406 320.97ZM323.589 172.983C357.645 175.801 386.623 200.704 409.877 231.689C433.011 262.513 449.698 298.319 459.406 320.97L468.597 317.031C458.805 294.181 441.742 257.488 417.875 225.686C394.129 194.046 362.858 166.199 324.414 163.017L323.589 172.983ZM150.007 301.646C156.356 288.755 172.255 256.507 200.477 227.488C228.638 198.532 268.851 173 324.001 173V163C265.407 163 222.761 190.231 193.308 220.516C163.917 250.737 147.448 284.207 141.036 297.228L150.007 301.646ZM148.463 304.757C148.902 303.889 149.421 302.835 150.007 301.646L141.036 297.228C140.442 298.433 139.949 299.433 139.54 300.243L148.463 304.757ZM102.582 428.869C111.601 377.781 132.165 336.974 148.463 304.757L139.54 300.243C123.25 332.443 102.037 374.432 92.7343 427.131L102.582 428.869ZM97.6582 433H493.92V423H97.6582V433Z" fill="#505050" mask="url(#path-3-inside-2_80_92)"/>
<path fill-rule="evenodd" clip-rule="evenodd" d="M393.302 341.38C375.445 330.666 355.802 311.651 355.802 300.309C355.802 288.967 364.596 279.773 375.445 279.773C383.336 279.773 390.14 284.638 393.263 291.655C396.351 284.647 403.202 279.773 411.159 279.773C422.007 279.773 430.802 288.834 430.802 300.011C430.802 311.189 411.159 330.821 393.302 341.38Z" fill="#FF9E59"/>
<path d="M367.802 312.773C369.615 312.773 371.723 312.773 373.802 312.773C375.179 312.773 375.963 310.16 377.802 310.273C379.478 310.377 380.325 312.773 381.302 312.773C382.829 312.773 383.802 312.773 383.802 312.773L385.802 315.273L388.302 296.773L392.302 319.273L394.302 312.773H402.302C402.302 312.773 404.791 310.273 406.802 310.273C408.812 310.273 411.302 312.773 411.302 312.773H419.302" stroke="#FEFEFE" stroke-width="2" stroke-linecap="round"/>
<g filter="url(#filter2_i_80_92)">
<ellipse cx="311.095" cy="129.979" rx="161" ry="120" transform="rotate(-3.64 311.095 129.979)" fill="#FEFEFE"/>
</g>
<path d="M469.276 119.916C471.318 152.019 455.727 182.388 428.479 205.528C401.23 228.668 362.44 244.45 318.555 247.242C274.67 250.034 234.193 239.294 204.232 219.793C174.271 200.293 154.957 172.144 152.915 140.042C150.873 107.94 166.464 77.5708 193.712 54.4308C220.961 31.2907 259.75 15.508 303.636 12.7163C347.521 9.92447 387.998 20.6645 417.959 40.1652C447.92 59.6658 467.233 87.8143 469.276 119.916Z" stroke="#505050" stroke-width="5"/>
<path fill-rule="evenodd" clip-rule="evenodd" d="M262.387 126.878C261.037 137.348 252.428 145.736 241.499 146.431C229.098 147.22 218.405 137.806 217.616 125.405C216.827 113.003 226.241 102.311 238.642 101.522C251.043 100.733 261.736 110.146 262.525 122.548C262.575 123.334 262.584 124.113 262.554 124.884C280.527 126.98 291.309 127.23 309.843 126.051C328.716 124.85 339.427 123.199 357.572 118.66C357.46 117.956 357.38 117.242 357.334 116.516C356.545 104.115 365.958 93.4223 378.36 92.6334C390.761 91.8445 401.454 101.258 402.243 113.66C403.032 126.061 393.618 136.754 381.217 137.543C370.225 138.242 360.576 130.927 357.975 120.62C339.762 125.173 328.935 126.84 309.97 128.047C291.338 129.232 280.442 128.981 262.387 126.878Z" fill="#121010"/>
<path d="M219.585 156.342C220.465 162.298 213.646 165.237 205.654 165.746C197.662 166.254 191.119 165.668 190.643 158.183C190.135 150.199 196.582 149.288 204.574 148.78C212.566 148.271 219.287 151.657 219.585 156.342Z" fill="#FF9E59"/>
<path d="M404.237 144.595C404.119 150.615 411.249 152.667 419.234 152.159C427.219 151.651 433.629 150.241 433.153 142.756C432.645 134.772 426.14 134.685 418.155 135.193C410.17 135.701 403.939 139.911 404.237 144.595Z" fill="#FF9E59"/>
<path d="M104.744 165.947C109.785 171.324 111.556 183.549 111.556 183.549C111.556 183.549 114.108 171.463 119.485 166.421C124.862 161.379 137.087 159.609 137.087 159.609C137.087 159.609 125.001 157.057 119.959 151.68C114.917 146.303 113.147 134.077 113.147 134.077C113.147 134.077 110.595 146.164 105.218 151.205C99.8408 156.247 87.6152 158.017 87.6152 158.017C87.6152 158.017 99.7017 160.57 104.744 165.947Z" fill="#FF9E59"/>
<path d="M61.1911 145.966C65.6769 148.833 69.091 157.075 69.091 157.075C69.091 157.075 68.7272 148.161 71.594 143.675C74.4607 139.189 82.7034 135.775 82.7034 135.775C82.7034 135.775 73.7891 136.139 69.3033 133.272C64.8175 130.406 61.4034 122.163 61.4034 122.163C61.4034 122.163 61.7672 131.077 58.9005 135.563C56.0337 140.049 47.791 143.463 47.791 143.463C47.791 143.463 56.7054 143.099 61.1911 145.966Z" fill="#FF9E59"/>
<path d="M46.078 212.624C56.7952 215.896 68.3838 230.673 68.3838 230.673C68.3838 230.673 62.5986 212.807 65.8703 202.09C69.1419 191.373 83.9189 179.784 83.9189 179.784C83.9189 179.784 66.0531 185.569 55.336 182.298C44.6188 179.026 33.0302 164.249 33.0302 164.249C33.0302 164.249 38.8154 182.115 35.5437 192.832C32.272 203.549 17.4951 215.138 17.4951 215.138C17.4951 215.138 35.3609 209.353 46.078 212.624Z" fill="#FF9E59"/>
<defs>
<filter id="filter0_i_80_92" x="35.001" y="193" width="569" height="235" filterUnits="userSpaceOnUse" color-interpolation-filters="sRGB">
<feFlood flood-opacity="0" result="BackgroundImageFix"/>
<feBlend mode="normal" in="SourceGraphic" in2="BackgroundImageFix" result="shape"/>
<feColorMatrix in="SourceAlpha" type="matrix" values="0 0 0 0 0 0 0 0 0 0 0 0 0 0 0 0 0 0 127 0" result="hardAlpha"/>
<feOffset dx="23"/>
<feGaussianBlur stdDeviation="8.5"/>
<feComposite in2="hardAlpha" operator="arithmetic" k2="-1" k3="1"/>
<feColorMatrix type="matrix" values="0 0 0 0 0.313726 0 0 0 0 0.313726 0 0 0 0 0.313726 0 0 0 0.25 0"/>
<feBlend mode="normal" in2="shape" result="effect1_innerShadow_80_92"/>
</filter>
<filter id="filter1_i_80_92" x="97.6582" y="168" width="413.262" height="260" filterUnits="userSpaceOnUse" color-interpolation-filters="sRGB">
<feFlood flood-opacity="0" result="BackgroundImageFix"/>
<feBlend mode="normal" in="SourceGraphic" in2="BackgroundImageFix" result="shape"/>
<feColorMatrix in="SourceAlpha" type="matrix" values="0 0 0 0 0 0 0 0 0 0 0 0 0 0 0 0 0 0 127 0" result="hardAlpha"/>
<feOffset dx="23"/>
<feGaussianBlur stdDeviation="8.5"/>
<feComposite in2="hardAlpha" operator="arithmetic" k2="-1" k3="1"/>
<feColorMatrix type="matrix" values="0 0 0 0 0.313726 0 0 0 0 0.313726 0 0 0 0 0.313726 0 0 0 0.25 0"/>
<feBlend mode="normal" in2="shape" result="effect1_innerShadow_80_92"/>
</filter>
<filter id="filter2_i_80_92" x="150.236" y="9.77893" width="338.718" height="240.401" filterUnits="userSpaceOnUse" color-interpolation-filters="sRGB">
<feFlood flood-opacity="0" result="BackgroundImageFix"/>
<feBlend mode="normal" in="SourceGraphic" in2="BackgroundImageFix" result="shape"/>
<feColorMatrix in="SourceAlpha" type="matrix" values="0 0 0 0 0 0 0 0 0 0 0 0 0 0 0 0 0 0 127 0" result="hardAlpha"/>
<feOffset dx="23"/>
<feGaussianBlur stdDeviation="8.5"/>
<feComposite in2="hardAlpha" operator="arithmetic" k2="-1" k3="1"/>
<feColorMatrix type="matrix" values="0 0 0 0 0.313726 0 0 0 0 0.313726 0 0 0 0 0.313726 0 0 0 0.25 0"/>
<feBlend mode="normal" in2="shape" result="effect1_innerShadow_80_92"/>
</filter>
</defs>
</svg>
